<svg xmlns="http://www.w3.org/2000/svg" height="1024" preserveAspectRatio="none" style="display: block;" version="1.1" viewBox="0 0 2048 2048" width="1024">
<defs>
	<linearGradient gradientUnits="userSpaceOnUse" id="Gradient1" x1="536.088" x2="541.325" y1="941.328" y2="956.174">
		<stop class="stop0" offset="0" stop-color="rgb(13,10,20)" stop-opacity="1"></stop>
		<stop class="stop1" offset="1" stop-color="rgb(23,31,78)" stop-opacity="1"></stop>
	</linearGradient>
</defs>
<path d="M 0 0 L 2048 0 L 2048 2048 L 0 2048 L 0 0 z" fill="rgb(255,255,255)" transform="translate(0,0)"></path>
<path d="M 383.823 145.736 C 373.412 137.597 319.249 93.2601 332.218 79.0675 C 335.248 78.0469 337.682 77.1844 340.692 78.8917 C 354.65 86.8094 368.312 93.8179 383.135 99.9685 C 419.089 114.887 456.083 126.654 492.374 140.634 C 502.731 144.623 515.454 148.969 525.02 154.306 C 524.872 146.075 524.035 121.967 532.012 117.18 C 535.427 117.737 536.575 118.351 538.762 121.641 C 546.467 133.237 557.543 147.347 568.13 156.432 C 609.684 192.089 667.844 219.171 720.093 234.724 C 761.651 246.12 804.043 256.707 836.383 287.29 C 861.756 311.284 868.25 344.94 877.682 377.074 C 894.005 432.686 911.851 490.591 944.52 539.162 C 959.475 561.397 983.862 583.213 1003.77 601.37 C 1030.47 624.647 1058.37 645.124 1090.91 659.592 C 1107.75 656.923 1130.12 649.282 1147.05 644.725 C 1165.28 639.957 1183.77 636.208 1202.43 633.497 C 1259.48 625.072 1287.37 636.559 1338.96 661.853 C 1356.56 670.483 1376.57 675.935 1395.94 687.049 C 1427.14 704.954 1405.99 759.551 1388.52 761.592 C 1384.57 758.369 1386.13 747.592 1383.01 746.854 C 1373.03 744.5 1335 745.55 1325.97 746.252 C 1310.61 747.446 1276.75 763.423 1267.35 775.324 C 1259.54 785.206 1259.63 794.469 1260.77 806.049 C 1265.03 849.601 1305.22 886.612 1338.41 912.007 C 1402.41 960.982 1484.88 983.005 1548.76 1033.4 C 1577.07 1056.19 1600.41 1084.14 1621.47 1113.61 C 1627.44 1121.95 1632.21 1131.17 1638.38 1139.4 C 1666.61 1177.03 1700.41 1205.54 1735.24 1236.66 L 1809.94 1304.48 C 1837.5 1329.01 1904.13 1382.22 1929.05 1413.28 C 1929.54 1413.89 1928.49 1415.42 1928.01 1416.36 C 1918.1 1419.63 1838.6 1388.14 1824.91 1381.13 L 1823.66 1380.47 C 1866.1 1431.45 1903.87 1486.38 1946.54 1537.28 C 1948.65 1539.8 1952.33 1545.25 1952.26 1548.44 L 1951.04 1550.36 C 1944.69 1551.13 1937.52 1548.19 1931.42 1546.66 C 1887.53 1535.61 1854.95 1506.91 1821.77 1478.12 C 1830.12 1494.64 1838.35 1509.2 1847.42 1525.52 C 1872.23 1570.22 1894.81 1620.06 1906.48 1669.78 C 1906.68 1670.64 1904.68 1671.43 1904.05 1671.79 C 1898 1670.65 1890.39 1664.8 1885.32 1661.19 C 1834.67 1625.15 1796.07 1570.54 1768.91 1515.53 C 1773.95 1543.47 1779.1 1574.71 1786.55 1601.85 C 1791.46 1619.74 1819.86 1737.08 1813.89 1746.5 C 1811.46 1746.93 1810.28 1746.11 1808.32 1744.73 C 1771.2 1718.6 1730.26 1630.53 1711.43 1587.68 C 1714.23 1604.84 1733.13 1729.28 1729.53 1737.34 L 1727.63 1738.06 C 1722.03 1734.73 1712.42 1719.49 1708.49 1713.39 C 1680.7 1670.24 1658.38 1629.35 1642.03 1580.8 C 1643.64 1595.08 1647.31 1655.37 1642.16 1667.53 L 1640.58 1668.33 C 1635.87 1665.68 1631.95 1657.58 1628.43 1652.72 C 1609.18 1626.07 1592.16 1597.97 1583.22 1565.99 C 1580.92 1557.44 1578.71 1548.86 1576.59 1540.27 C 1575.79 1549.55 1573.48 1592.98 1569.54 1596.76 C 1549.67 1598.56 1517.14 1498.97 1508.79 1481.13 C 1495.69 1498.88 1481.83 1517.17 1460.45 1525.49 C 1451.17 1496.41 1449.22 1475.22 1441.82 1449.37 C 1420.38 1470.25 1403.57 1484.13 1373.36 1491.94 C 1366.44 1472.79 1365.34 1443.03 1364.63 1422.19 C 1345.97 1429.96 1336.11 1434.03 1315.97 1437.45 C 1309.48 1416.44 1308.62 1413.05 1307.12 1391.01 C 1281.72 1402.74 1276.54 1396.34 1252.26 1393.7 C 1251.34 1381.61 1248.97 1365.07 1253.01 1353.93 C 1238.52 1358.03 1225.01 1361.29 1210.33 1364.71 C 1206.65 1353.17 1202.46 1337.33 1198.41 1326.57 C 1190.69 1329.05 1175.13 1335.12 1167.83 1333.73 C 1161.46 1328.14 1171.63 1313.13 1175.18 1307.01 C 1144.8 1305.24 1125.62 1302.51 1106.31 1276.12 C 1112.01 1270.61 1116.99 1265.63 1122.39 1259.83 C 1093.97 1250.45 1065.93 1241.7 1045.25 1218.34 C 1049.41 1208.99 1054.52 1204.25 1062.72 1198.26 C 1043.29 1196.33 1027.06 1192.89 1009.86 1183.28 C 1004.31 1180.18 997.748 1178.44 997.097 1171.39 C 1000.63 1163.37 1014.87 1151.6 1021.93 1145.73 C 1003.55 1144.86 978.918 1137.68 966.503 1124.02 C 965.389 1122.78 964.318 1121.49 963.293 1120.17 C 966.718 1110.12 969.395 1104.24 977.039 1096.34 C 955.69 1092.67 878.153 1083.11 929.566 1052.2 C 921.924 1046.3 900.693 1031.27 900.998 1021.49 C 907.032 1016 953.282 1011.01 964.664 1009.01 C 983.842 1005.63 1007.98 997.912 1026.75 997.65 C 1017.91 1004.68 1007.17 1011.86 997.854 1018.67 C 980.449 1031.39 955.904 1052.5 937.369 1062.09 C 984.064 1072.91 1032.89 1070.06 1078 1053.86 C 1095.72 1047.58 1111.75 1039.58 1129.97 1034.46 C 1121.42 1043.92 1076.71 1068.14 1063.94 1072.77 C 1033.33 1083.88 1015.11 1084.91 988.555 1106.29 C 1044.25 1121.68 1096.07 1102.91 1146.57 1079.54 C 1154.53 1075.85 1164.05 1070.8 1171.27 1065.8 C 1168.49 1059.19 1165.57 1052.91 1163.93 1045.93 C 1155.71 1046.1 1145.59 1046.58 1137.54 1046.13 C 1130.08 1035.68 1130.42 1033.7 1131.07 1021.15 C 1117.33 1024.86 1104.98 1028.31 1090.54 1028.1 C 1080 1018.12 1078.11 1021.53 1075.66 1006.71 C 1057.92 1010.09 1053.7 1012.93 1053.8 993.36 C 1036.09 996.78 1009.03 1002.16 1019.15 974.102 C 977.115 988.648 935.343 991.048 892.61 1000.35 C 886.516 1001.68 852.672 1023.7 844.117 1028.41 C 815.58 1084.62 784.955 1141.56 747.956 1192.81 C 732.826 1213.76 720.294 1227.51 693.94 1231.97 C 716.87 1255.94 748.936 1282.72 774.078 1304.74 C 826.738 1350.85 878.983 1398.7 931.853 1444.45 L 980.782 1486.64 C 989.495 1494.11 998.147 1501.27 1006.6 1509.09 C 1011.94 1514.03 1013.9 1521.46 1007.84 1526.8 C 995.879 1537.35 983.286 1547.4 971.095 1557.79 C 941.913 1582.94 912.576 1607.91 883.086 1632.7 L 622.683 1853.66 L 547.312 1918.64 C 531.913 1931.76 516.2 1943.64 501.613 1957.77 C 421.747 1959.05 339.448 1958.24 259.404 1958.05 L 176.374 1957.91 C 163.99 1957.9 143.873 1958.46 132.028 1957.65 C 143.016 1941.22 199.141 1896.03 216.776 1881.26 L 294.855 1814.99 L 479.518 1657.27 C 535.245 1610.24 596.146 1560.55 650.116 1512.27 C 527.332 1405.21 405.251 1297.34 283.88 1188.68 C 248.221 1157.38 212.832 1125.77 177.717 1093.85 C 169.863 1086.7 139.048 1059.39 134.552 1051.64 L 134.425 1048.92 C 143.197 1040.16 405.119 1059.1 441.444 1058.99 C 446.015 1052.52 446.986 1051.34 453.12 1045.93 C 443.866 1043.56 430.165 1037.53 425.789 1028.98 C 412.494 1003.01 446.175 988.009 464.321 982.145 C 441.233 968.098 447.282 947.317 469.687 937.064 C 494.77 925.585 524.552 919.334 551.661 914.251 C 595.373 905.907 639.221 898.294 683.187 891.416 C 682.183 878.173 681.532 871.346 686.331 858.632 C 654.247 854.376 640.105 844.355 650.736 810.036 C 631.623 812.756 615.838 815.027 604.085 796.497 C 604.711 784.015 605.432 780.227 610.704 768.702 C 573.305 769.248 571.86 748.613 581.874 719.233 C 576.069 719.812 569.496 720.678 563.709 720.301 C 533.771 718.347 545.536 685.157 550.914 667.757 C 512.193 670.859 483.245 669.812 505.481 620.507 C 485.479 619.128 462.49 615.943 464.908 591.212 C 465.759 582.51 473.131 573.168 473.394 567.869 C 461.446 556.31 430.074 582.106 447.901 518.36 C 435.094 521.712 407.241 529.154 402.337 509.058 C 399.143 495.971 410.061 482.026 418.312 472.504 C 404.347 474.423 380.677 478.58 368.39 470.682 C 357.586 463.738 368.91 451.581 374.662 445.883 C 368.075 444.537 347.398 439.391 343.38 434.611 C 342.778 431.43 343.684 429.368 344.546 426.225 C 342.349 424.27 241.991 433.236 243.972 412.764 C 246.654 408.458 257.974 403.046 262.917 400.379 C 246.513 398.864 199.219 395.516 188.338 384.701 C 184.866 373.589 225.075 368.521 232.902 367.724 C 212.801 366.427 156.557 367.334 142.819 354.543 C 137.049 340.261 176.916 333.059 186.036 331.443 L 201.509 328.792 C 186.679 327.377 104.791 321.515 106.462 301.943 C 114.872 289.092 160.842 285.002 176.69 283.146 C 163.274 280.929 132.597 274.118 121.108 264.135 C 120.167 263.317 120.884 261.741 121.202 260.111 C 131.013 246.575 185.544 232.148 202.33 230.01 C 215.025 228.394 234.323 225.162 247.062 225.091 L 247.618 223.251 C 226.108 220.915 134.88 203.853 134.035 180.642 C 140.812 174.172 238.164 174.164 253.529 174.265 C 242.198 167.772 182.244 132.803 192.299 116.071 C 208.218 111.034 358.179 139.605 383.823 145.736 z" fill="rgb(33,37,68)" transform="translate(0,0)"></path>
<path d="M 247.618 223.251 L 250.288 222.998 L 255.055 225.036 L 247.062 225.091 L 247.618 223.251 z" fill="rgb(161,161,177)" transform="translate(0,0)"></path>
<path d="M 250.288 222.998 C 253.726 223.183 254.775 222.838 257.762 224.217 C 256.575 224.664 256.294 224.885 255.055 225.036 L 250.288 222.998 z" fill="rgb(92,91,115)" transform="translate(0,0)"></path>
<path d="M 204.484 1076.82 C 282.8 1076.71 372.565 1083.45 451.877 1086.68 C 467.418 1098.87 448.788 1101.54 454.207 1119.11 C 457.127 1128.58 462.919 1133.18 471.299 1137.91 C 479.368 1138.05 482.225 1138.03 490.139 1136.78 C 487.539 1175.77 508.597 1185.81 543.763 1175.4 C 558.512 1198.31 574.085 1196.85 597.413 1189.67 C 597.68 1190.94 597.96 1192.21 598.253 1193.47 C 603.163 1214.6 612.413 1213.36 628.377 1216.69 C 632.52 1217.56 647.376 1231.08 651.209 1234.67 C 730.575 1307.42 810.997 1379.01 892.449 1449.42 C 907.394 1462.48 922.168 1475.74 936.767 1489.19 C 946.484 1498.02 959.752 1510.77 970.502 1517.42 L 655.607 1785.03 C 603.747 1829.26 548.877 1878.5 496.048 1920.73 L 487.159 1927.9 C 461.194 1930.47 407.812 1928.88 380.384 1928.78 C 322.006 1928.57 263.628 1928.68 205.251 1929.13 C 218.263 1916.35 246.199 1894.43 261.269 1881.86 L 361.061 1798.2 C 377.707 1784.31 393.431 1769.82 409.916 1755.81 L 595.071 1598.46 C 608.08 1587.45 685.45 1524.41 690.046 1515.11 C 689.835 1511.11 689.686 1507.76 686.725 1504.93 C 674.507 1493.27 661.054 1481.52 648.444 1470.36 L 552.229 1386.76 L 381.716 1234.34 L 287.315 1150.96 C 259.442 1126.58 231.198 1102.59 204.484 1076.82 z" fill="rgb(255,255,255)" transform="translate(0,0)"></path>
<path d="M 615.239 262.139 C 604.028 255.631 582.354 243.684 578.438 230.304 C 578.895 228.822 578.719 228.003 580.216 227.23 C 597.158 218.481 680.056 253.178 699.964 258.38 C 702.894 259.146 708.717 260.21 711.456 258.539 C 706.065 253.794 696.696 249.858 689.964 246.657 C 732.451 250.009 800.849 271.166 829.635 304.458 C 850.27 328.323 857.26 359.861 865.08 389.545 C 890.069 484.398 912.154 547.491 991.739 610.557 C 1021.05 633.783 1034.53 645.285 1068.55 665.531 C 1065.08 667.172 1060.77 669.384 1057.26 670.676 L 1057.62 672.491 C 1050.4 676.647 1022.64 690.499 1033.41 703.656 C 1044.61 717.353 1063.92 711.038 1079.11 723.089 C 1071.52 730.803 1059.98 737.9 1053.25 745.063 C 1045.41 753.403 1008.38 798.022 1015.26 808.594 C 1030.77 817.376 1080.8 788.421 1096.69 779.851 C 1083.23 801.258 1068.05 822.023 1062.1 846.601 C 1042.54 851.672 1017.3 857.63 997.138 860.446 C 1007.13 839.713 1022.09 829.571 1034.19 811.263 C 1026.05 817.125 989.593 834.455 982.658 826.647 C 982.815 819.515 992.997 806.324 997.08 798.782 C 991.789 801.751 963.87 817.257 963.083 803.985 C 962.181 788.792 980.552 769.725 987.191 757.366 C 982.416 761.16 977.111 766.987 970.671 766.23 C 966.665 760.337 977.487 747.968 977.515 740.994 C 975.407 740.562 973.631 741.864 971.867 743.232 C 959.701 752.674 958.756 763.414 965.458 776.119 C 954.914 794.163 938.895 823.933 976.598 816.287 C 962.378 841.584 986.678 837.073 1002.07 833.494 C 992.219 847.112 988.68 852.015 985.065 868.506 C 994.728 869.169 998.228 869.06 1007.96 867.654 C 1002.34 876.486 1001.05 877.712 1000.5 888.305 L 1000.42 889.63 C 993.546 893.238 982.186 899.197 975.507 892.27 C 972.674 884.183 979.725 878.315 979.115 873.193 C 975.19 873.461 967.255 879.394 963.748 881.905 L 960.578 882.653 C 942.009 886.967 932.927 889.001 916.354 878.671 C 920.879 868.689 922.787 865.159 931.463 858.525 C 925.012 857.793 915.5 857.851 911.747 851.935 C 911.41 838.494 935.762 831.795 932.396 822.417 C 929.543 821.174 927.628 820.668 925.631 818.287 C 926.878 813.489 929.737 815.331 931.216 810.117 L 929.999 808.825 C 922.238 805.922 915.294 811.991 909.519 805.769 C 906.139 790.641 922.877 796.489 923.65 787.495 C 918.328 786.576 914.483 784.322 913.398 778.849 C 914.859 772.425 920.104 768.99 925.089 764.888 L 939.075 760.77 C 904.404 740.919 941.925 738.255 949.856 730.17 C 949.433 710.762 877.455 747.468 873.764 751.875 C 861.599 766.398 843.884 781.375 832.441 795.372 C 825.93 780.008 817.765 751.14 816.753 734.084 C 816.349 727.292 818.86 713.893 817.861 710.371 C 807.046 712.168 805.074 736.513 804.938 745.412 C 792.046 731.767 786.772 715.108 786.803 696.348 C 786.815 688.925 789.295 681.049 788.039 674.357 L 786.553 673.985 C 778.701 678.769 777.045 683.939 774.89 692.711 C 773.996 696.505 773.202 700.322 772.509 704.158 C 766.809 690.904 761.893 679.125 765.853 664.536 C 769.07 652.686 765.687 637.935 764.372 625.979 C 763.476 617.826 763.866 609.638 764.14 601.506 C 754.583 616.618 753.45 621.608 753.449 639.284 C 746.713 625.699 747.575 627.029 744.131 613.769 C 741.361 603.102 744.478 563.994 741.455 559.829 C 737.5 562.724 728.697 592.536 726.993 599.195 C 713.866 568.868 715.094 529.625 721.429 497.822 C 705.204 521.035 699.348 548.223 703.092 576.26 C 704.903 589.819 715.955 612.29 729.513 616.813 C 735.482 635.21 737.76 640.768 752.35 653.91 C 751.616 663.635 750.694 673.3 750.937 683.051 C 739.715 701.308 683.058 770.404 665.96 776.271 L 665.734 776.134 C 660.763 776.964 660.41 778.577 656.562 782.752 L 653.512 781.903 C 650.64 784.542 648.268 787.295 644.559 788.286 L 643.425 787.706 L 641.507 786.84 L 640.97 787.5 C 636.853 792.446 634.613 794.624 629.716 798.723 C 634.076 792.101 640.138 785.676 642.843 777.867 C 644.081 774.291 645.078 773.152 647.418 770.166 C 643.081 772.661 638.058 778.09 634.324 781.73 L 638.534 771.876 L 637.599 770.101 L 635.359 768.437 C 662.836 725.245 709.841 688.996 735.951 643.942 C 735.827 643.018 735.702 642.094 735.577 641.17 L 734.012 640.917 C 725.227 645.372 710.068 666.857 701.29 674.963 C 678.484 696.025 653.577 717.393 629.61 737.106 L 635.762 726.578 C 628.075 731.174 618.438 742.829 614 744.476 C 611.3 745.088 610.873 744.251 608.08 742.51 C 606.67 743.812 605.917 744.778 604.881 746.393 L 603.537 746.686 L 600.759 746.825 L 599.824 747.509 L 598.151 746.324 C 595.768 738.089 605.889 727.131 605.333 722.475 C 603.236 723.317 601.968 723.652 599.778 724.246 L 598.646 723.202 C 602.719 709.095 651.977 653.678 664.382 640.382 C 679.436 624.246 697.174 613.123 707.146 590.358 C 695.443 598.015 685.09 609.091 674.055 617.845 C 648.943 637.766 623.064 656.662 598.051 676.728 C 592.429 681.238 585.811 686.775 579.784 690.608 C 580.436 688.014 581.32 687.621 583.245 685.432 C 582.351 676.706 583.158 675.245 585.502 666.85 C 586.362 661.632 586.612 657.901 586.938 652.694 C 585.105 656.717 580.312 668.042 577.987 670.888 C 576.116 670.28 576.324 670.418 574.596 669.465 C 570.56 672.576 567.943 676.294 564.74 680.275 C 567.018 676.006 571.66 665.617 574.113 662.43 C 592.739 638.229 613.769 613.219 635.701 591.986 C 653.137 575.105 670.501 559.903 683.259 539.495 C 687.319 545.354 690.212 549.09 696.881 552.125 L 699.542 551.915 L 700.925 550.085 C 699.718 542.18 693.687 532.767 692.915 526.569 C 690.187 504.666 700.835 482.911 704.549 462.727 C 691.363 473.303 684.823 488.294 679.098 503.937 C 663.495 477.939 661.711 448.495 685.649 425.105 C 689.799 421.05 704.351 411.169 704.951 406.149 C 692.232 401.552 682.411 426.153 667.615 419.013 C 644.746 407.977 650.014 386.159 665.791 371.83 C 652.637 372.355 609.94 376.262 602.17 370.082 C 597.182 359.518 610.091 349.934 616.685 342.876 C 555.848 346.05 515.748 332.37 596.095 295.6 C 587.803 293.815 581.113 292.62 573.374 288.963 C 548.867 257.92 596.248 265.838 615.239 262.139 z" fill="rgb(255,255,255)" transform="translate(0,0)"></path>
<path d="M 674.177 279.353 C 669.462 279.105 662.762 277.691 659.727 281.622 C 661.666 290.155 701.081 307.906 710.249 309.626 C 712.782 310.101 713.669 310.994 714.668 313.072 L 713.016 314.552 C 708.991 315.189 704.782 315.252 700.456 314.67 C 681.804 312.161 655.108 304.213 642.377 289.608 C 639.725 286.565 638.423 281.748 639.077 278.814 C 641.859 266.321 666.607 269.781 675.512 271.136 C 676.481 271.283 674.514 268.142 678.528 265.219 C 688.676 264.474 709.568 267.785 719.51 270.272 L 720.852 271.703 L 720.218 270.568 L 720.978 271.356 L 720.63 271.91 C 716.444 273.344 700.096 274.655 694.739 275.286 C 710.384 286.242 724.677 284.535 744.472 295.805 C 739.921 291.594 725.316 278.644 722.386 274.422 C 724.182 271.504 722.948 272.684 726.673 271.316 C 742.853 273.777 754.275 277.158 769.213 284.176 C 784.096 291.169 825.413 318.581 830.635 334.067 C 827.914 334.722 821.263 330.134 818.485 328.487 C 805.887 321.019 795.995 320.765 781.744 320.818 C 808.134 331.645 829.265 344.45 844.728 368.682 C 818.463 356.973 812.303 355.863 784.475 349.923 C 819.888 374.025 833.85 384.202 863.384 416.467 C 848.104 408.084 838.245 406.98 821.148 406.222 C 839.608 419.797 862.383 439.996 873.639 460.224 C 851.309 442.971 832.056 432.738 803.545 438.539 C 836.671 453.406 866.426 474.855 891.002 501.582 C 866.023 491.243 848.605 487.147 823.152 497.299 C 856.491 506.824 892.854 526.023 917.201 550.92 C 890.715 536.926 883.903 533.35 854.401 534.105 C 886.176 543.699 908.564 557.818 934.675 577.477 C 907.687 571.784 886.793 572.159 860.266 578.66 C 886.224 580.97 923.32 585.26 944.228 602.084 C 935.486 601.648 926.735 601.458 917.983 601.514 C 945.144 612.668 974.722 626.327 993.567 649.826 C 950.558 632.849 945.159 623.157 894.093 625.482 C 902.87 629.277 913.459 635.896 921.609 638.895 C 935.361 643.955 950.031 648.176 964.071 653.152 C 935.865 661.017 928.413 664.771 906.334 684.871 C 944.632 678.8 975.342 678.495 1013.79 678.548 C 1023.13 678.561 1046.42 672.443 1057.26 670.676 L 1057.62 672.491 C 1047.33 672.536 1011.39 683.356 999.509 685.599 C 970.863 691.009 937.253 696.268 912.942 712.857 C 931.595 709.37 967.45 704.57 984.996 711.734 L 985.443 713.009 C 978.14 717.169 925.945 723.428 912.338 726.707 C 882.733 733.839 873.82 748.038 849.901 758.941 C 850.14 758.011 850.39 757.083 850.649 756.157 C 864.422 707.565 881.138 679.64 924.749 655.14 C 911.006 658.816 856.473 680.139 849.126 667.169 C 850.96 662.286 887.522 650.026 896.601 642.754 C 855.673 632.464 837.355 643.452 825.582 683.534 C 834.377 683.475 853.074 679.66 857.726 682.874 L 857.162 685.071 C 853.177 689.381 848.227 692.686 842.718 694.713 C 833.876 697.94 814.192 701.68 810.758 688.426 C 807.918 677.465 815.509 668.797 820.686 659.91 L 820.286 658.811 C 806.521 666.267 798.824 659.011 799.226 645.862 C 797.435 643.271 788.295 643.755 785.834 642.446 C 756.284 626.742 776.544 605.451 792.348 589.146 C 766.423 579.792 773.632 559.92 783.678 540.509 C 762.232 536.012 725.261 526.637 748.254 497.276 C 727 493.192 712.126 478.592 727.953 458.601 C 737.365 446.713 755.091 443.758 769.021 442.561 C 761.627 437.527 749.234 429.773 749.101 420.072 C 754.594 408.329 776.94 413.614 787.176 415.661 C 778.454 407.615 774.318 404.511 763.848 399.009 C 753.953 403.096 748.493 405.805 741.91 414.251 C 744.37 422.596 746.967 427.984 751.078 435.501 C 735.508 427.625 721.432 422.483 734.789 404.213 C 719.435 404.603 678.694 405.357 671.606 387.337 C 673.411 373.08 709.934 372.374 720.669 371.783 C 717.087 369.969 714.363 369.498 712.298 365.918 L 713.181 364.313 C 724.599 361.602 752.78 372.085 754.001 385.648 C 752.576 387.167 749.378 384.578 747.372 383.552 C 743.126 381.396 738.542 379.984 733.818 379.378 C 720.17 377.504 699.72 382.125 685.9 384.669 C 691.525 386.54 697.185 389.351 703.044 391.405 C 728.198 400.22 753.806 397.823 778.928 390.475 C 783.887 389.025 787.536 388.942 792.577 388.794 C 758.319 365.94 753.31 366.186 714.526 357.477 C 701.506 352.544 646.065 341.737 642.601 327.331 C 636.142 300.471 677.575 312.816 687.535 316.206 C 677.352 318.497 667.217 318.449 657.845 322.487 C 674.519 325.149 695.051 326.299 711.893 325.806 C 711.776 325.809 743.665 320.197 742.394 320.73 C 736.874 317.106 716.326 310.086 716.385 304.241 C 719.404 303.334 721.31 303.604 724.43 303.695 C 717.458 297.628 698.423 293.458 689.284 288.981 C 682.8 285.805 680.109 283.662 674.177 279.353 z" fill="rgb(26,29,62)" transform="translate(0,0)"></path>
<path d="M 799.113 540.292 L 809.754 541.146 C 804.202 549.948 803.07 555.465 800.156 565.442 C 823.431 568.984 835.901 567.617 859.157 566.968 C 835.409 576.57 817.572 580.925 806.91 605.386 C 823.851 594.642 828.363 595.07 847.89 597.885 C 838.877 601.4 834.215 603.421 826.508 609.169 C 820.633 614.41 808.609 632.728 803.059 633.189 C 801.528 628.413 806.716 618.893 805.262 612.628 L 803.518 611.982 C 796.065 614.752 793.41 622.367 789.464 629.319 L 788.246 629.574 C 771.947 605.87 817.909 590.969 811.966 577.734 C 805.361 572.564 798.403 572.702 789.961 571.669 C 790.617 562.318 792.202 546.78 799.113 540.292 z" fill="rgb(255,255,255)" transform="translate(0,0)"></path>
<path d="M 769.376 443.82 C 774.346 443.968 776.753 446.654 780.744 449.746 C 771.918 451.667 757.787 454.672 751.988 461.86 C 750.265 473.088 773.75 475.456 781.836 477.057 C 792.403 479.149 803.426 480.666 814.111 482.166 C 781.116 501.8 746.8 507.428 804.738 530.304 L 789.482 528.365 C 778.202 526.997 745.553 523.719 756.525 505.133 C 762.852 494.417 771.818 490.619 783.052 487.967 C 760.796 488.443 750.472 490.352 731.643 476.187 C 740.45 479.03 748.391 481.323 757.73 479.777 L 758.255 478.515 C 751.637 472.172 739.675 473.696 739.699 462.833 C 744.146 453.636 759.804 448.119 769.376 443.82 z" fill="rgb(255,255,255)" transform="translate(0,0)"></path>
<path d="M 818.201 627.155 C 833.407 626.685 840.162 627.777 855.274 630.543 C 848.406 636.051 844.319 639.508 838.147 645.716 C 835.426 648.851 829.601 654.342 825.353 654.748 C 824.547 651.88 824.943 652.088 825.669 648.849 L 825.919 647.768 L 824.642 646.499 C 821.274 646.016 817.148 646.652 813.667 647.006 C 812.962 638.348 811.475 633.28 818.201 627.155 z" fill="rgb(255,255,255)" transform="translate(0,0)"></path>
<path d="M 709.644 330.356 C 710.691 330.11 715.027 329.526 715.506 329.887 C 733.075 343.144 746.183 348.793 766.728 356.208 C 757.765 355.9 753.678 355.317 744.821 353.681 C 725.708 348.69 699.099 343.2 683.007 333.193 C 692.416 332.764 700.352 331.624 709.644 330.356 z" fill="rgb(255,255,255)" transform="translate(0,0)"></path>
<path d="M 611.335 728.213 C 614.583 723.732 615.516 722.619 619.601 718.906 L 620.692 719.506 L 619.141 721.563 L 619 727.023 C 614.316 732.281 610.488 740.178 608.08 742.51 C 606.67 743.812 605.917 744.778 604.881 746.393 L 603.537 746.686 L 600.759 746.825 L 599.824 747.509 L 598.151 746.324 C 595.768 738.089 605.889 727.131 605.333 722.475 L 610 720.626 L 611.456 721.43 C 611.15 724.353 611.176 724.395 610.15 727.132 L 611.335 728.213 z" fill="rgb(26,29,62)" transform="translate(0,0)"></path>
<path d="M 605.333 722.475 L 610 720.626 L 611.456 721.43 C 611.15 724.353 611.176 724.395 610.15 727.132 L 611.335 728.213 C 605.962 734.989 602.911 738.243 600.759 746.825 L 599.824 747.509 L 598.151 746.324 C 595.768 738.089 605.889 727.131 605.333 722.475 z" fill="rgb(26,29,62)" transform="translate(0,0)"></path>
<path d="M 610.15 727.132 L 611.335 728.213 C 605.962 734.989 602.911 738.243 600.759 746.825 L 599.824 747.509 L 598.151 746.324 C 601.446 737.652 604.44 734.064 610.15 727.132 z" fill="rgb(137,139,153)" transform="translate(0,0)"></path>
<path d="M 619.141 721.563 L 619 727.023 C 614.316 732.281 610.488 740.178 608.08 742.51 C 606.67 743.812 605.917 744.778 604.881 746.393 L 603.537 746.686 C 604.461 744.358 617.201 723.836 619.141 721.563 z" fill="rgb(186,187,199)" transform="translate(0,0)"></path>
<path d="M 647.418 770.166 C 649.046 768.693 650.236 769.048 652.916 768.69 C 649.824 773.68 643.586 782.317 641.507 786.84 L 640.97 787.5 C 636.853 792.446 634.613 794.624 629.716 798.723 C 634.076 792.101 640.138 785.676 642.843 777.867 C 644.081 774.291 645.078 773.152 647.418 770.166 z" fill="rgb(232,230,230)" transform="translate(0,0)"></path>
<path d="M 619 727.023 L 620.317 728.69 C 618.978 736.478 613.278 740.06 614 744.476 C 611.3 745.088 610.873 744.251 608.08 742.51 C 610.488 740.178 614.316 732.281 619 727.023 z" fill="rgb(26,29,62)" transform="translate(0,0)"></path>
<path d="M 583.245 685.432 C 582.351 676.706 583.158 675.245 585.502 666.85 L 588.436 667.483 C 590.827 674.045 587.222 680.269 583.245 685.432 z" fill="rgb(26,29,62)" transform="translate(0,0)"></path>
<path d="M 652.916 768.69 C 655.712 775.691 647.825 782.71 643.425 787.706 L 641.507 786.84 C 643.586 782.317 649.824 773.68 652.916 768.69 z" fill="rgb(26,29,62)" transform="translate(0,0)"></path>
<path d="M 653.512 781.903 C 655.233 778.022 656.719 774.747 658.706 770.999 C 659.8 774.009 656.786 780.101 656.562 782.752 L 653.512 781.903 z" fill="rgb(62,59,69)" transform="translate(0,0)"></path>
<path d="M 916.305 746.578 C 917.786 754.91 918.188 757.635 924.481 763.676 L 925.089 764.888 C 920.104 768.99 914.859 772.425 913.398 778.849 C 914.483 784.322 918.328 786.576 923.65 787.495 C 922.877 796.489 906.139 790.641 909.519 805.769 C 915.294 811.991 922.238 805.922 929.999 808.825 L 931.216 810.117 C 929.737 815.331 926.878 813.489 925.631 818.287 C 927.628 820.668 929.543 821.174 932.396 822.417 C 935.762 831.795 911.41 838.494 911.747 851.935 C 915.5 857.851 925.012 857.793 931.463 858.525 C 922.787 865.159 920.879 868.689 916.354 878.671 C 932.927 889.001 942.009 886.967 960.578 882.653 L 963.748 881.905 L 965.207 884.026 C 965.568 889.43 965.921 894.554 966.012 899.984 C 983.237 903.55 988.392 902.883 1005.09 897.182 C 1006.04 896.858 1011.03 898.595 1012.18 898.93 C 1021.89 903.12 1026.96 900.831 1036.83 898.226 C 1036.66 899.654 1036.52 901.073 1036.4 902.504 C 1054.8 913.915 1095.85 894.612 1097.11 895.125 L 1095.79 898.542 L 1096.99 899.204 C 1105.97 894.633 1112.74 890.684 1120.27 883.849 C 1111.78 885.226 1101.57 886.775 1093.37 888.903 C 1076.25 893.349 1065.71 898.313 1047.73 898.663 L 1051.16 885.831 C 1033.69 893.122 998.455 901.017 1016.59 868.55 C 1026.41 864.208 1039.1 860.67 1049.45 857.01 L 1119.14 831.919 C 1114.39 843.24 1106.45 861.269 1111.1 873.36 L 1112.83 874.858 C 1115.6 874.26 1115.74 874.468 1117.8 871.792 C 1131.68 853.755 1150.59 821.32 1166.71 806.189 C 1157.26 835.239 1142.26 884.768 1121.09 907.479 C 1114.17 914.9 1077.85 931.925 1067.42 935.951 C 1052.68 941.641 1038.07 944.514 1023.08 953.007 C 987.376 973.237 946.559 975.679 906.972 981.585 C 895.107 983.207 882.433 986.386 870.35 986.176 C 867.64 986.129 865.707 981.781 864.308 979.236 C 860.512 981.197 853.29 989.379 851.063 990.429 C 835.002 998.001 815.658 1004.24 798.48 1006.04 C 803.879 998.608 807.795 992.897 814.509 986.537 C 823.276 978.232 864.436 964.722 867.317 955.294 C 862.731 952.337 839.718 958.229 833.797 960.08 C 836.264 958.266 839.107 956.761 840.323 954.319 C 837.019 955.571 827.979 959.656 825.45 960.278 C 822.982 959.4 823.158 959.177 821.594 956.975 L 818.436 959.526 L 818.015 957.746 C 822.767 952.886 832.559 946.119 838.527 942.43 C 842.166 939.805 850.031 934.43 851.463 930.459 C 848.973 930.539 848.903 930.75 846.555 931.718 C 848.38 927.022 857.048 923.112 857.766 916.572 C 852.009 915.91 817.515 936.885 810.38 941.02 C 780.852 958.128 752.628 968.434 744.55 1004.62 C 712.404 1030.65 663.527 1064.92 623.738 1076.16 C 636.402 1065.47 659.56 1044.81 672.555 1036.06 C 674.415 1033.57 683.593 1027.73 687.536 1026.8 L 690.679 1028.3 C 694.512 1025.78 697.272 1024.6 698.415 1020.61 L 696.39 1017.79 C 701.482 1010.74 726.521 993.19 725.704 983.546 C 723.145 983.078 715.825 991.131 713.011 993.293 C 701.967 1001.78 652.576 1038.35 641.383 1029.35 C 638.004 1018.38 662.317 999.772 664.276 986.761 C 663.01 983.821 664.013 985.094 660.504 983.412 C 667.045 979.404 690.374 964.188 695.977 965.163 C 701.126 960.542 705.543 956.76 711.236 952.68 C 708.28 956.776 705.108 961.532 701.65 965.128 L 703.575 965.926 C 704.802 989.841 736.665 973.523 749.233 969.02 C 763.023 964.079 779.28 955.956 788.175 943.935 L 787.782 943.042 L 783.535 945.367 L 781.503 944.217 L 791.849 934.879 C 784.569 938.707 752.742 957.333 747.469 958.192 C 746.646 955.759 747.4 956.622 745.675 955.107 C 742.618 956.365 742.41 956.255 739.973 958.647 L 744.091 958.197 L 744.113 959.14 C 733.978 964.313 723.203 968.122 712.069 970.468 C 724.968 958.206 743.545 946.274 757.215 933.804 C 768.038 923.932 777.852 921.122 787.729 908.206 L 772.149 911.879 C 778.17 905.177 783.101 899.723 790.126 894.021 C 800.819 885.342 811.395 878.625 820.93 868.651 C 815.982 867.793 805.413 866.632 802.623 862.683 L 803.102 860.333 C 806.802 856.419 812.407 854.88 814.361 851.936 C 802.409 847.31 773.544 866.454 809.427 872.146 C 788.835 878.681 771.93 890.396 753.52 901.557 C 762.938 890.985 770.4 877.749 781.375 867.234 C 809.846 839.956 841.144 812.429 866.944 782.535 C 870.129 785.092 870.936 786.016 874.658 787.449 C 879.945 787.84 880.168 788.762 884.474 792.507 C 886.867 791.393 888.289 790.754 890.816 789.846 L 891.121 791.244 C 894.193 789.791 898.13 786.674 900.974 784.599 C 891.14 782.971 883.391 782.133 873.795 779.172 C 886.119 766.088 901.217 756.134 916.305 746.578 z" fill="rgb(255,255,255)" transform="translate(0,0)"></path>
<path d="M 916.305 746.578 C 917.786 754.91 918.188 757.635 924.481 763.676 L 925.089 764.888 C 920.104 768.99 914.859 772.425 913.398 778.849 C 914.483 784.322 918.328 786.576 923.65 787.495 C 922.877 796.489 906.139 790.641 909.519 805.769 C 915.294 811.991 922.238 805.922 929.999 808.825 L 931.216 810.117 C 929.737 815.331 926.878 813.489 925.631 818.287 C 927.628 820.668 929.543 821.174 932.396 822.417 C 935.762 831.795 911.41 838.494 911.747 851.935 C 915.5 857.851 925.012 857.793 931.463 858.525 C 922.787 865.159 920.879 868.689 916.354 878.671 C 932.927 889.001 942.009 886.967 960.578 882.653 L 963.748 881.905 L 965.207 884.026 C 944.85 894.079 927.006 899.606 906.238 885.653 C 903.07 894.082 895.126 912.667 901.357 919.956 C 908.378 923.104 919.471 919.788 927.274 918.195 C 918.242 931.406 916.662 934.641 911.905 950.115 C 920.229 948.892 928.316 946.4 935.885 942.725 C 940.47 940.512 951.791 933.39 955.533 932.997 C 956.71 941.131 943.944 946.138 943.903 953.282 L 945.287 954.585 C 963.153 959.136 982.023 945.543 993.079 932.913 C 1007.88 949.403 1029.2 924.408 1038.87 913.503 C 1028.72 935.712 1019.17 948.76 991.83 946.297 C 970.668 962.314 960.692 960.487 935.521 965.407 C 935.541 960.366 935.764 954.959 935.891 949.891 C 927.631 953.576 911.407 963.282 904.861 954.724 C 902.871 946.054 909.775 935.237 913.987 927.772 C 894.46 936.674 883.206 925.145 890.52 906.829 C 895.046 895.496 907.664 876.966 914.491 866.026 C 897.327 859.1 899.506 855.203 909.425 842.242 C 881.779 854.958 855.463 868.428 846.758 900.582 C 865.404 903.836 872.192 896.94 887.753 897.115 L 887.946 898.282 C 880.892 903.819 840.18 924.376 837.493 904.558 C 835.809 892.14 856.526 872.312 865.677 862.747 C 858.024 864.584 826.469 874.982 827.752 860.39 C 828.867 847.723 837.577 837.297 846.316 828.817 C 823.249 819.143 872.839 795.136 878.977 791.996 L 879.28 790.98 L 874.658 787.449 C 879.945 787.84 880.168 788.762 884.474 792.507 C 886.867 791.393 888.289 790.754 890.816 789.846 L 891.121 791.244 C 894.193 789.791 898.13 786.674 900.974 784.599 C 891.14 782.971 883.391 782.133 873.795 779.172 C 886.119 766.088 901.217 756.134 916.305 746.578 z" fill="rgb(26,29,62)" transform="translate(0,0)"></path>
<path d="M 916.305 746.578 C 917.786 754.91 918.188 757.635 924.481 763.676 C 917.724 764.576 911.379 766.129 906.806 772.123 C 903.338 776.668 906.018 783.83 905.149 787.913 C 903.746 794.5 898.426 801.285 900.949 809.208 C 903.863 818.357 914.435 820.929 923.757 829.207 C 912.05 837.284 851.06 863.625 840.052 857.852 C 836.076 849.958 844.888 837.085 849.601 830.475 C 852.94 829.26 859.267 824.226 862.333 821.901 L 849.632 818.702 C 862.279 805.772 875.267 799.62 891.121 791.244 C 894.193 789.791 898.13 786.674 900.974 784.599 C 891.14 782.971 883.391 782.133 873.795 779.172 C 886.119 766.088 901.217 756.134 916.305 746.578 z" fill="rgb(255,255,255)" transform="translate(0,0)"></path>
<path d="M 818.015 957.746 C 822.767 952.886 832.559 946.119 838.527 942.43 L 840.827 943.309 L 842.399 942.878 C 840.548 945.953 828.963 956.735 825.45 960.278 C 822.982 959.4 823.158 959.177 821.594 956.975 L 818.436 959.526 L 818.015 957.746 z" fill="rgb(26,29,62)" transform="translate(0,0)"></path>
<path d="M 818.015 957.746 C 822.767 952.886 832.559 946.119 838.527 942.43 L 840.827 943.309 C 835.299 946.925 826.318 952.514 821.594 956.975 L 818.436 959.526 L 818.015 957.746 z" fill="rgb(116,120,149)" transform="translate(0,0)"></path>
<path d="M 696.165 966.228 C 699.197 966.783 698.016 966.481 701.65 965.128 L 703.575 965.926 C 692.561 974.197 683.089 986.046 672.708 992.653 C 681.454 980.606 686.61 976.757 696.165 966.228 z" fill="rgb(26,23,31)" transform="translate(0,0)"></path>
<path d="M 672.555 1036.06 C 674.415 1033.57 683.593 1027.73 687.536 1026.8 L 690.679 1028.3 C 685.686 1032.48 681.146 1036.74 675.405 1039.74 C 673.485 1039.2 674.075 1039.67 673.297 1038.91 L 672.555 1036.06 z" fill="rgb(26,23,31)" transform="translate(0,0)"></path>
<path d="M 672.555 1036.06 C 674.415 1033.57 683.593 1027.73 687.536 1026.8 C 682.848 1031.82 676.22 1035.05 673.297 1038.91 L 672.555 1036.06 z" fill="rgb(92,91,115)" transform="translate(0,0)"></path>
<path d="M 1084.66 964.132 C 1088.24 961.495 1091.59 957.599 1094.15 955.966 C 1093.91 960.086 1092.59 965.085 1094.25 968.098 L 1096.02 968.554 C 1124.05 960.844 1144.72 929.206 1162.32 909.398 C 1149.23 935.462 1131.4 955.623 1117.51 981.465 C 1126.11 978.14 1138.41 970.5 1147.31 965.954 C 1143.37 974.373 1134.6 989.483 1146.04 995.647 C 1160.52 997.386 1178.6 972.255 1190.62 963.497 C 1188.29 968.1 1186.29 972.086 1184.26 976.87 C 1187.59 974.505 1196.44 960.956 1204.35 954.368 L 1205.49 953.422 C 1198.5 965.285 1174.77 997.512 1173.67 1008.93 C 1178.58 1018.6 1208.27 992.603 1213.7 988.408 C 1213.43 996.562 1213.82 1001.48 1214.56 1009.67 C 1225.11 983.835 1229.09 981.795 1252.55 966.167 C 1245.97 977.204 1222.42 1026 1217.15 1029.08 C 1213.24 1027.55 1216.26 1027.16 1212.36 1022.62 C 1208.52 1027.34 1204.21 1042.18 1207.91 1047.5 C 1211.62 1046.21 1227.96 1031.95 1235.08 1027.7 L 1236.35 1026.95 C 1235.21 1031.91 1231.38 1042.5 1236.36 1045.49 C 1242.71 1041.08 1247.77 1033.81 1253.32 1029.79 C 1278.77 1011.35 1285.79 989.248 1297.54 960.524 L 1299.53 961.296 C 1294.8 980.526 1289.13 999.311 1278.56 1016.23 C 1277.01 1018.71 1272.99 1024.54 1272.54 1026.93 C 1276.03 1026.65 1278.2 1024.93 1281.26 1023.13 C 1282.28 1024.61 1282.74 1025.38 1283.64 1026.92 C 1290.35 1027.78 1296.36 1010.04 1300.22 1004.45 C 1293.29 1033.68 1293.43 1058.4 1263.95 1073.23 C 1266.91 1062.97 1271.69 1049.87 1270.83 1039.53 L 1269.74 1038.81 C 1264.47 1045.07 1257.02 1070.72 1257.55 1079.34 L 1258.57 1080.92 C 1267.6 1082.33 1280.81 1071.39 1289.05 1066.4 C 1289.77 1072.65 1290.32 1078.95 1291.69 1085.06 C 1305.02 1076.86 1306.79 1072.75 1317.92 1061.82 C 1317.13 1070.53 1315.37 1077.91 1318.97 1085.65 C 1330.42 1094.07 1351.53 1054.82 1355.48 1045.96 C 1357.47 1041.48 1359.11 1036.37 1360.68 1031.7 C 1360.33 1046.8 1359.45 1070.96 1362.05 1085.46 C 1364.44 1098.83 1375.15 1097.2 1363.02 1116.99 C 1359.84 1106.2 1356.48 1092.63 1350.83 1083.14 L 1350.23 1084.33 C 1342.45 1100.01 1343.8 1105.63 1331.34 1120.99 C 1330.52 1106.31 1331 1097.32 1332.38 1082.68 C 1307.81 1120.08 1332.16 1149.93 1348.14 1106.01 C 1348.75 1104.28 1349.3 1102.53 1349.79 1100.75 C 1352.09 1111.39 1356.3 1137.66 1371.24 1118.68 C 1375.89 1112.77 1378.61 1103.67 1382.58 1097.15 C 1394.7 1078.93 1400.07 1059.02 1409.01 1039.49 C 1408.2 1054.12 1407.46 1064.2 1403.28 1078.52 C 1398.09 1096.25 1377.29 1117.38 1392.35 1134.65 C 1395.25 1137.97 1399.57 1142.63 1404.03 1142.83 C 1406.54 1137.57 1403.06 1129.28 1403.39 1123.39 C 1403.63 1119.08 1404.4 1114.28 1405.08 1110.01 C 1407.4 1119.69 1414.6 1168.96 1431.88 1162.23 C 1440.32 1158.94 1448.93 1139.99 1454.52 1131.83 C 1454.27 1143.29 1451.86 1161.83 1460.68 1170.02 C 1471.02 1179.61 1476.17 1182.59 1480.97 1168.16 C 1492.72 1188 1494.52 1185.82 1515.55 1178.17 C 1517.91 1181.88 1520.76 1186.12 1522.86 1189.91 C 1528.72 1183.8 1531.41 1180.41 1535.81 1173 C 1535.83 1179.64 1534.88 1200.67 1545.71 1197.1 C 1563.38 1191.28 1576.39 1161.35 1582.07 1147.31 C 1593.83 1186.98 1577.93 1199.51 1572.89 1232.11 C 1581.15 1224.45 1582.89 1218.57 1587.15 1208.4 C 1591.56 1218.87 1601.5 1237.96 1611.66 1243.49 C 1613.07 1243.58 1614.1 1243.99 1614.8 1243.03 C 1618.4 1238.12 1620.9 1219.76 1622.06 1213.61 C 1628.36 1219.97 1637.52 1230.69 1646.72 1231.08 C 1657.41 1225.88 1649.01 1192.42 1652.03 1179.81 C 1652.38 1179.88 1712.03 1236.87 1719.45 1243.63 C 1704.82 1238.13 1684.17 1227.12 1671.04 1218.91 C 1673.33 1238.8 1679.03 1255.82 1676.51 1275.38 C 1657.29 1262.31 1640.54 1249.35 1622.07 1236.29 C 1627.55 1255.72 1628.56 1263.01 1622.91 1282.49 C 1617.56 1275.07 1612.15 1266.83 1606.93 1259.25 C 1600.07 1268.38 1593 1277.35 1585.71 1286.15 C 1584.97 1285.5 1584.24 1284.84 1583.51 1284.17 C 1562.29 1264.7 1557.57 1240.82 1556.32 1213.55 C 1535.31 1228.23 1524.06 1241.55 1499.28 1253.83 C 1488.33 1232.49 1488 1224.37 1480.15 1203.61 C 1474.12 1209.46 1466.82 1218.51 1461.22 1225.07 C 1451.55 1204.83 1448 1189.16 1449.3 1167.11 C 1437.19 1179.39 1421.43 1198.92 1409.85 1212.41 C 1397.08 1194.89 1396.11 1177.36 1400.96 1156.91 C 1390.64 1165.83 1382.92 1171.53 1375.09 1182.84 C 1360.43 1163.5 1354.17 1150 1344.9 1128.31 C 1335.93 1145.35 1328.92 1161.47 1317.29 1176.9 C 1300.67 1154.51 1299.65 1132.66 1296.29 1106.49 C 1293.6 1108.88 1289.83 1112.99 1286.55 1113.47 C 1283.2 1109.96 1286.38 1109.31 1283.68 1105.74 C 1275.24 1112.27 1273.05 1119.41 1262.2 1127.16 L 1261.19 1127.86 C 1251.32 1114.7 1249.95 1104.32 1248.74 1088.54 C 1244.01 1089.93 1233.49 1094.74 1229.66 1092.61 C 1226.59 1083.92 1236.67 1062.4 1239.98 1052.7 C 1229.26 1062.71 1220.61 1070.67 1211.65 1082.43 C 1205.55 1070.62 1205.72 1067.16 1205.78 1054.27 C 1201.27 1056.42 1194.9 1060.07 1189.93 1058.11 C 1176.26 1052.7 1180.4 1033.07 1184.45 1022.72 C 1176.17 1026.01 1160.52 1030.78 1151.7 1028.6 C 1139.36 1025.56 1146.87 1009.62 1143.8 1003.9 C 1137.54 1002.07 1106.72 1010.14 1094.59 1011.12 C 1097.88 1000.51 1100.51 990.048 1103.27 979.297 C 1092.61 984.946 1085.37 988.944 1073.82 992.367 C 1076.06 985.432 1078.81 978.074 1081.26 971.161 C 1066.56 977.655 1051.72 978.39 1035.88 979.909 C 1039.88 971.045 1044.85 960.151 1051.55 953.101 C 1070.04 950.233 1083.41 944.802 1099.33 935.373 C 1091.07 947.082 1089.26 950.569 1084.66 964.132 z" fill="rgb(255,255,255)" transform="translate(0,0)"></path>
<path d="M 1205.25 1101.73 C 1216.09 1108.75 1221.54 1101.73 1227.37 1111.24 L 1228.25 1112.69 C 1231.92 1113.86 1230.01 1113.71 1234.2 1112.43 C 1235.43 1108.1 1234.61 1108.27 1237.46 1106 C 1242.35 1109.49 1240.9 1115.72 1238.1 1120.15 C 1246.88 1137.26 1254.55 1143.98 1268.58 1137.21 C 1271.85 1135.63 1272.43 1141.76 1276.31 1144.53 C 1279.03 1144.63 1280.12 1144.56 1282.78 1145.21 C 1287.04 1150.91 1287.5 1156.48 1290.34 1162.86 C 1296.01 1175.58 1302.72 1185.48 1315.67 1191.27 C 1325.55 1189.01 1334.35 1183.8 1343.36 1179.12 C 1360.05 1189.89 1363.05 1199.33 1385.39 1196.79 C 1386.67 1203.19 1387.28 1205.53 1389.47 1211.66 C 1383.68 1220.08 1378.87 1230.3 1373.71 1239.37 C 1357.15 1268.51 1341.77 1301.01 1322.94 1328.51 C 1316.24 1338.3 1299.54 1353.99 1290.85 1362.56 C 1292.05 1308.85 1313.32 1269.83 1331.74 1221.14 C 1307.71 1256.23 1279.25 1300.37 1241.62 1320.29 C 1235.38 1323.59 1230.9 1326.83 1223.93 1328.62 L 1222.93 1327.68 C 1221.67 1322.31 1222.85 1316.04 1223.64 1310.55 C 1230.77 1260.89 1288.33 1225.38 1303.32 1182.12 C 1295.94 1187.32 1288.27 1195.66 1281.67 1202.2 C 1272.16 1211.81 1262.31 1221.07 1252.13 1229.97 C 1213.21 1263.69 1188.96 1275.39 1138 1271.8 C 1152.15 1256.19 1166.82 1241.06 1182 1226.44 C 1216.06 1194.19 1232.81 1183.5 1261.04 1143.98 C 1242.19 1156.42 1228.15 1172.67 1208.24 1184.23 C 1160.24 1212.07 1131.21 1219.89 1078.74 1208.09 C 1095.16 1189.97 1109.77 1174.79 1129.09 1159.69 C 1149.3 1143.89 1191.08 1121.35 1205.25 1101.73 z" fill="rgb(255,255,255)" transform="translate(0,0)"></path>
<path d="M 1234.2 1112.43 C 1235.43 1108.1 1234.61 1108.27 1237.46 1106 C 1242.35 1109.49 1240.9 1115.72 1238.1 1120.15 L 1234.2 1112.43 z" fill="rgb(26,29,62)" transform="translate(0,0)"></path>
<path d="M 1044.95 690.544 C 1049.56 687.71 1054.01 685.283 1059.07 683.392 C 1106.73 665.592 1154.91 653.366 1205.57 648.001 C 1224.52 645.993 1238.82 642.089 1258.62 644.682 C 1290.46 648.855 1319.16 661.293 1348.76 672.869 C 1352.53 674.34 1355.87 676.182 1357.31 679.985 C 1355.27 685.341 1351.02 684.494 1346.13 686.214 C 1339.65 688.492 1336.42 687.357 1329.95 685.638 C 1327.28 681.753 1323.68 671.221 1319.83 670.028 C 1317.38 674.673 1317.81 681.172 1317.63 686.633 C 1319.11 688.68 1318.99 690.041 1319.32 692.597 C 1318.58 696.857 1319.17 697.683 1316.81 700.48 C 1314.24 700.588 1314.42 700.547 1312.1 699.349 L 1309.63 696.542 C 1308.81 693.193 1309.03 692.733 1309.29 689.356 C 1307.37 697.659 1302.5 704.184 1297.96 711.471 C 1293.68 711.159 1278.96 712.396 1273.59 712.679 C 1266.94 717.397 1263.7 720.136 1257.66 725.664 C 1236.37 729.098 1224.63 730.597 1214.27 751.729 C 1232.06 736.514 1241.53 732.137 1265.19 733.296 C 1265.46 733.655 1265.73 734.014 1265.99 734.373 L 1267.19 735.92 C 1273.8 744.586 1281.23 746.911 1291.19 749.71 C 1237.64 767.988 1218.09 776.918 1190.85 830.957 C 1186.43 813.056 1185.84 796.69 1188.19 778.511 C 1149.6 782.691 1137.33 796.929 1106.41 812.841 C 1115.95 794.776 1128.07 779.422 1137.16 760.604 C 1109.84 752.149 1082.21 760.449 1055.98 769.43 C 1082.32 744.919 1092.27 729.512 1124.9 712.447 C 1106.6 702.303 1066.35 691.227 1044.95 690.544 z" fill="rgb(255,255,255)" transform="translate(0,0)"></path>
<path d="M 1234.53 669.695 C 1240.09 668.202 1244.93 666.901 1250.73 667.234 C 1262.68 667.92 1273.9 672.058 1285.09 675.908 C 1286.64 676.444 1296.22 679.843 1297.08 679.677 C 1308.69 677.454 1309.15 679.461 1317.63 686.633 C 1319.11 688.68 1318.99 690.041 1319.32 692.597 C 1318.58 696.857 1319.17 697.683 1316.81 700.48 C 1314.24 700.588 1314.42 700.547 1312.1 699.349 L 1309.63 696.542 C 1308.81 693.193 1309.03 692.733 1309.29 689.356 C 1300.45 688.305 1295 687.31 1286.31 685.306 C 1282.21 691.686 1278.23 698.129 1271.01 701.252 C 1257.03 707.299 1245.03 695.888 1240.32 683.739 C 1229.63 680.215 1222.84 677.911 1212.66 673.159 C 1227.89 675.71 1234.35 675.239 1249.75 674.8 L 1234.53 669.695 z" fill="rgb(26,29,62)" transform="translate(0,0)"></path>
<path d="M 1253.47 674.403 C 1255.61 674.85 1256.04 675.005 1258.09 675.692 C 1257.41 678.074 1255.57 683.986 1255.55 686.296 C 1255.51 689.9 1258.18 692.298 1256.83 696.009 C 1246.18 689.702 1245.71 683.593 1253.47 674.403 z" fill="rgb(255,255,255)" transform="translate(0,0)"></path>
<path d="M 1341.37 676.146 C 1346.18 675.902 1349.31 675.024 1352.33 679.355 L 1351.75 681.324 C 1348.95 683.719 1346.97 683.393 1343.23 683.628 C 1339.11 684.562 1337.74 684.618 1334.42 682.837 L 1334.02 680.576 C 1336.77 677.035 1336.44 678.014 1341.37 676.146 z" fill="rgb(26,29,62)" transform="translate(0,0)"></path>
<path d="M 1219.2 825.369 C 1221.38 832.227 1227.85 847.578 1233.78 851.68 C 1239.12 851.505 1239.43 847.093 1240.78 842.556 C 1244.87 846.311 1257.79 867.682 1265.33 875.357 C 1287.16 897.601 1316.09 920.961 1341.98 937.798 C 1410.45 982.332 1491.31 1002.4 1553.55 1057.76 C 1584.59 1085.37 1605.71 1118.28 1629.21 1152.01 C 1635.28 1160.73 1645.08 1171.26 1652.03 1179.81 C 1647.37 1179.05 1637.5 1174.14 1635.14 1174.78 C 1634.32 1179.02 1637.47 1180.86 1637.98 1183.55 C 1639.95 1193.87 1639.61 1207.5 1640.82 1218.25 C 1630.33 1212.63 1620.89 1196.3 1617.69 1194.98 C 1613.26 1199.38 1611.32 1219.38 1609.54 1226.27 C 1598.64 1207.63 1593.08 1183.79 1598.15 1162.85 C 1603.98 1138.75 1599.79 1123.4 1585.1 1104.09 C 1580.94 1098.62 1576.01 1090.82 1569.65 1087.59 L 1567.9 1087.77 C 1567.31 1089.81 1567.29 1088.73 1568.23 1090.86 C 1575.86 1108.28 1574.73 1122.39 1570.09 1140.21 C 1561.89 1122.49 1550.96 1120.74 1548.46 1101.94 L 1547.26 1100.94 C 1544.13 1101.71 1542.91 1102.98 1540.36 1104.93 C 1536.59 1102.83 1537.58 1100.74 1532.34 1096.33 C 1531.17 1106.76 1529.97 1123.37 1530.54 1133.93 C 1532.53 1131.14 1540.68 1118.38 1541.78 1117.28 C 1548.97 1120.13 1564.48 1162.99 1560.07 1172.78 C 1557.98 1177.41 1550.8 1183.27 1546.65 1186.2 C 1541.96 1161.24 1545.79 1163.35 1547.63 1141.02 C 1537.46 1147.84 1531.88 1150.98 1527.56 1162.79 C 1526.86 1150.84 1523.15 1141.46 1522.27 1130.47 C 1521.78 1124.35 1523.24 1108 1524.28 1101.44 C 1527.82 1079.07 1519.06 1064.47 1509.42 1044.8 C 1504.8 1058.96 1499.42 1076.35 1489.76 1087.71 C 1486.74 1053.6 1480.3 1028.66 1448.02 1011.57 C 1439.72 1028.14 1433.56 1043 1426.21 1059.95 C 1425.45 1041.46 1419.43 997.022 1403.43 985.929 C 1398.96 987.491 1390.32 1025.98 1388.69 1032.92 C 1385.47 1005.44 1384.43 969.397 1349.88 965.893 L 1343.85 976.094 C 1334.67 995.114 1328.58 1009.68 1321.86 1029.85 C 1323.88 1004.14 1329.23 961.15 1311.56 940.322 C 1306.71 934.602 1299.14 929.739 1292.34 926.401 C 1276.87 937.99 1261.27 946.384 1244.09 955.117 C 1252.17 942.837 1270.02 899.923 1260.54 888.578 C 1252.99 886.496 1242.03 896.303 1236.66 901.354 C 1236.13 893.034 1235.79 863.962 1230.48 858.977 C 1228 858.933 1226.77 859.043 1224.74 861.392 C 1211.72 876.495 1211.52 880.735 1191.78 887.802 C 1196.71 869.691 1207.37 839.905 1219.2 825.369 z" fill="rgb(255,255,255)" transform="translate(0,0)"></path>
<path d="M 1604.93 1144.41 C 1613.27 1150.23 1608.48 1159.6 1613.26 1165.35 C 1614.51 1164.24 1613.83 1164.77 1615.32 1163.76 C 1618.69 1166.88 1622.3 1171.12 1627.1 1170.63 L 1628.96 1167.86 L 1630.31 1167.78 C 1631.6 1170.35 1632.12 1171.73 1633.11 1174.39 C 1632.24 1177.81 1632.08 1177.98 1630.53 1180.98 C 1623.98 1184.95 1616.07 1179.9 1611.21 1175.2 C 1603.15 1167.43 1604.64 1154.61 1604.93 1144.41 z" fill="rgb(26,29,62)" transform="translate(0,0)"></path>
<path d="M 699.929 1056.01 L 701.439 1056.51 C 679.14 1093.73 738.285 1071.72 751.54 1067.36 C 734.431 1096.94 665.473 1184.8 634.668 1196.58 C 630.793 1198.06 626.975 1198.65 623.098 1196.8 C 620.134 1195.38 617.93 1192.95 616.929 1189.81 C 615.288 1184.66 616.7 1178.59 619.013 1173.88 C 624.698 1162.28 634.873 1151.86 642.861 1141.69 C 657.367 1123.21 686.143 1085.32 695.452 1065.07 C 695.612 1064.72 695.763 1064.37 695.918 1064.02 C 668.412 1095.97 651.875 1118.09 621.166 1149.18 C 609.354 1160.32 589.334 1180.03 572.22 1175.76 C 551.049 1170.47 578.877 1147.84 583.767 1142.02 C 595.85 1127.64 611.254 1110.42 619.198 1093.66 C 610.34 1104.1 599.884 1115.99 589.851 1125.53 C 571.201 1142.49 549.642 1162.06 523.191 1163.12 C 505.74 1163.81 506.203 1136.65 513.543 1129.23 C 522.108 1120.58 539.181 1112 549.863 1104.31 C 560.615 1096.57 571.068 1088.67 581.693 1080.31 C 582.09 1085.52 582.836 1091.33 587.099 1094.8 C 605.037 1098.69 678.925 1063.94 699.929 1056.01 z" fill="rgb(255,255,255)" transform="translate(0,0)"></path>
<path d="M 1485.26 1261.22 C 1486.98 1265.04 1487.98 1268.45 1491.18 1270.95 C 1506.28 1275.96 1537.81 1252.52 1548.03 1242.44 C 1551.27 1259.15 1555 1268.88 1564 1283.49 C 1555.81 1306.18 1553.22 1374.7 1555.38 1399.94 C 1559.25 1445.25 1562.22 1473.9 1551.63 1519.9 C 1546.2 1506.36 1540.67 1492.92 1536.28 1478.99 C 1516.62 1416.6 1518.41 1354.71 1516.35 1290.56 L 1512.29 1290.23 C 1502.13 1338.76 1507.55 1387.77 1503.84 1436.54 C 1503.4 1442.38 1489.41 1459.49 1485.31 1464.76 C 1479.12 1454.16 1469.66 1437.48 1467.89 1425.46 C 1460.67 1376.28 1483.99 1308.96 1485.26 1261.22 z" fill="rgb(255,255,255)" transform="translate(0,0)"></path>
<path d="M 1512.29 1290.23 C 1513.21 1286.91 1513.31 1284.74 1515.41 1282.4 C 1516.55 1285.67 1516.34 1287.14 1516.35 1290.56 L 1512.29 1290.23 z" fill="rgb(26,29,62)" transform="translate(0,0)"></path>
<path d="M 1639.29 1270.1 C 1648.79 1275.53 1678.48 1295.94 1688.46 1293.28 C 1691.59 1290.2 1692.38 1286.63 1693.92 1282.42 C 1700.91 1307.37 1710.24 1331.21 1716.99 1355.8 C 1726.1 1388.95 1732.15 1423.67 1740.37 1457.16 C 1720.85 1427.84 1702.36 1407.33 1686.55 1373.41 C 1682.51 1364.64 1678.96 1355.66 1675.91 1346.49 C 1672.26 1335.59 1659.35 1286.98 1653.67 1282.44 C 1651.6 1288.38 1654.1 1302.07 1655.07 1308.85 C 1655.36 1315.15 1658.25 1328.63 1659.85 1335.05 C 1674.6 1394.54 1679.25 1455.19 1688.72 1515.33 C 1676 1497.43 1663.3 1480.25 1651.57 1461.6 C 1641.15 1446.4 1634.03 1435.4 1630.4 1417.14 C 1622.12 1375.45 1619.04 1333.43 1613.4 1291.39 C 1618.01 1294.8 1620.87 1298.49 1626.94 1296.73 C 1632.79 1292.38 1635.6 1278.84 1639.29 1270.1 z" fill="rgb(255,255,255)" transform="translate(0,0)"></path>
<path d="M 1434.22 1211.77 C 1445.7 1225.78 1444.85 1236.85 1465.83 1245.17 C 1468.1 1242.43 1470.48 1239.22 1472.7 1236.38 C 1475.27 1242.04 1482.88 1253.02 1483.28 1258.11 L 1482.08 1257.84 C 1479.73 1258.65 1480.11 1259.68 1479.36 1263.79 C 1475.82 1283.19 1469.36 1301.81 1464.52 1320.81 C 1456.01 1354.19 1449.95 1394.3 1426.75 1421.23 C 1418.39 1430 1405.12 1441.46 1396.02 1449.78 C 1396.07 1409.18 1392.92 1384.32 1401.88 1343.35 C 1410.31 1304.79 1432.96 1249.71 1434.22 1211.77 z" fill="rgb(255,255,255)" transform="translate(0,0)"></path>
<path d="M 730.609 891.231 C 733.664 890.36 736.258 889.891 738.426 892.268 C 737.753 896.863 728.413 906.246 725.388 912.461 C 720.825 921.832 724.978 919.636 723.825 926.855 C 708.972 931.805 675.182 937.053 657.963 940.906 L 566.874 961.693 C 543.476 966.99 519.279 971.75 495.403 974.949 C 492.401 975.351 486.819 973.694 483.742 972.834 C 477.606 970.627 472.371 968.279 469.078 962.573 C 468.917 960.899 468.502 959.751 469.256 958.17 C 479.435 936.823 593.059 919.754 619.312 914.831 C 640.032 910.945 660.593 906.39 681.265 902.287 C 697.469 899.071 715.057 896.829 730.609 891.231 z" fill="rgb(255,255,255)" transform="translate(0,0)"></path>
<path d="M 499.095 956.244 C 500.401 954.896 502.548 952.76 504.371 952.35 C 519.185 949.015 563.552 937.907 576.66 937.446 C 579.837 939.385 578.451 938.106 580.325 942.021 C 578.989 944.964 575.868 946.758 573.046 947.525 C 560.323 950.985 509.055 965.437 498.812 963.102 L 496.725 961.089 L 496.7 959.295 L 497.333 958.738 L 499.095 956.244 z" fill="url(#Gradient1)" transform="translate(0,0)"></path>
<path d="M 532.365 948.977 L 532.745 950.542 C 521.79 953.039 508.024 956.782 497.333 958.738 L 499.095 956.244 C 503.197 955.843 525.663 950.19 532.365 948.977 z" fill="rgb(116,120,149)" transform="translate(0,0)"></path>
<path d="M 532.365 948.977 C 536.476 947.677 537.242 947.118 541.306 947.863 L 541.39 949.051 C 537.784 950.646 536.622 950.438 532.745 950.542 L 532.365 948.977 z" fill="rgb(26,29,62)" transform="translate(0,0)"></path>
<path d="M 609.424 998.261 C 608.993 998.337 608.562 998.407 608.132 998.489 C 598.226 1000.38 588.041 1006.72 578.223 1009.79 C 549.892 1018.65 469.548 1038.69 445.458 1022.72 C 442.65 1020.86 440.462 1018.62 440.015 1015.15 C 439.711 1012.78 441.017 1010.49 442.577 1008.79 C 447.457 1003.46 461.709 999.389 468.555 997.355 C 502.976 987.128 540.481 980.785 575.639 971.723 C 604.037 964.403 631.849 955.192 660.152 947.605 C 678.71 942.631 697.621 938.854 716.466 935.146 C 712.794 939.564 707.572 945.681 703.115 948.918 C 691.379 957.44 622.862 996.44 614.612 998.094 C 610.887 999.233 612.552 999.421 609.424 998.261 z" fill="rgb(255,255,255)" transform="translate(0,0)"></path>
<path d="M 624.331 979.551 C 621.458 984.984 617.069 992.693 614.612 998.094 C 610.887 999.233 612.552 999.421 609.424 998.261 C 614.709 992.161 619.42 985.94 624.331 979.551 z" fill="rgb(26,23,31)" transform="translate(0,0)"></path>
<path d="M 1565.14 1284.85 C 1585.57 1302.92 1581.59 1313.59 1607.59 1288.8 C 1606.31 1335.97 1608.03 1387.04 1610.26 1434.27 C 1611.98 1470.67 1617.79 1502.66 1615.16 1539.9 L 1614.47 1555.45 C 1575.35 1479.66 1567.32 1399.2 1565.12 1315.18 C 1564.86 1305.32 1563.5 1294.55 1565.14 1284.85 z" fill="rgb(255,255,255)" transform="translate(0,0)"></path>
<path d="M 825.925 1036.97 C 825.921 1041.34 820.387 1051.71 818.033 1055.62 C 800.705 1084.41 793.396 1113.33 763.969 1132.42 C 740.786 1147.46 717.374 1161.46 694.133 1176.15 C 691.039 1178.11 688.419 1183.16 688.369 1186.92 L 690.157 1188.12 C 703.164 1187.04 740.25 1160.09 752.26 1151.58 C 759.616 1146.37 767.02 1138.57 775.123 1133.59 C 766.756 1142.99 758.744 1152.86 750.71 1162.55 C 734.517 1181.84 708.304 1216.33 679.517 1211.91 C 674.175 1211.1 667.113 1209.28 663.672 1204.46 C 660.184 1199.57 670.729 1194.06 673.016 1190.56 C 695.505 1169.74 745.292 1095.36 752.413 1067.01 C 773.226 1058.54 788.354 1045.65 810.573 1042.54 C 814.779 1041.95 821.775 1038.74 825.925 1036.97 z" fill="rgb(255,255,255)" transform="translate(0,0)"></path>
<path d="M 597.025 1014.23 L 597.464 1015.07 C 592.838 1021.54 588.476 1030.15 588.464 1038.29 C 588.455 1044.88 590.896 1046.67 595.358 1051.08 C 573.023 1067.26 552.659 1090.41 526.596 1104.75 C 523.109 1106.66 468.034 1142.12 472.083 1107.27 C 473.348 1096.39 513.085 1081.58 527.022 1074.21 C 537.018 1068.84 546.709 1063.21 555.801 1056.41 C 532.39 1066.23 493.966 1083.8 468.768 1078.29 C 453.67 1074.99 464.005 1051.55 477.322 1046.39 C 494.192 1039.86 509.294 1039.6 526.565 1035.47 C 550.042 1029.86 574.57 1023.07 597.025 1014.23 z" fill="rgb(255,255,255)" transform="translate(0,0)"></path>
<path d="M 416.539 499.169 C 425.796 461.143 553.334 404.903 590.587 390.91 C 590.415 390.975 628.924 389.343 637.133 387.706 C 630.286 395.66 628.07 398.04 626.256 408.285 C 603.179 426.168 489.768 480.74 464.856 481.07 C 460.212 483.32 459.976 490.542 452.127 494.977 C 450.894 492.875 451.289 493.759 451.165 491.083 L 451.336 489.607 C 452.101 483.451 451.689 481.845 450.872 475.8 C 446.564 481.544 444.596 485.55 437.007 486.004 L 434.878 483.812 C 436.203 487.816 437.727 489.354 435.554 493.194 C 432.958 496.855 433.577 497.271 430.139 498.595 L 430.101 497.861 C 425.687 500.106 425.084 500.701 421.518 504.183 L 420.595 503.733 L 415.885 509.835 L 416.081 506.957 L 414.834 504.417 C 415.387 502.599 415.911 500.962 416.539 499.169 z" fill="rgb(255,255,255)" transform="translate(0,0)"></path>
<path d="M 429.723 488.27 C 431.593 485.389 431.773 485.018 434.278 482.462 L 434.878 483.812 C 436.203 487.816 437.727 489.354 435.554 493.194 C 432.958 496.855 433.577 497.271 430.139 498.595 L 430.101 497.861 C 425.687 500.106 425.084 500.701 421.518 504.183 L 420.595 503.733 C 423.768 496.678 425.238 494.627 429.723 488.27 z" fill="rgb(26,29,62)" transform="translate(0,0)"></path>
<path d="M 422.45 494.504 C 423.261 491.018 423.354 490.187 425.047 486.903 L 426.885 486.354 L 429.723 488.27 C 425.238 494.627 423.768 496.678 420.595 503.733 L 415.885 509.835 L 416.081 506.957 L 414.834 504.417 C 415.387 502.599 415.911 500.962 416.539 499.169 L 422.45 494.504 z" fill="rgb(161,161,177)" transform="translate(0,0)"></path>
<path d="M 416.539 499.169 L 422.45 494.504 C 420.884 499.166 418.548 502.705 416.081 506.957 L 414.834 504.417 C 415.387 502.599 415.911 500.962 416.539 499.169 z" fill="rgb(26,29,62)" transform="translate(0,0)"></path>
<path d="M 451.165 491.083 C 455.794 486.462 458.661 483.308 464.153 479.725 L 464.856 481.07 C 460.212 483.32 459.976 490.542 452.127 494.977 C 450.894 492.875 451.289 493.759 451.165 491.083 z" fill="rgb(26,29,62)" transform="translate(0,0)"></path>
<path d="M 1391.35 1216.54 C 1401.14 1224.86 1401.19 1224.98 1413.86 1227.41 C 1418.47 1225.42 1426.12 1219.89 1430.56 1216.89 C 1428.63 1243.01 1402.86 1315.91 1389.97 1339.34 C 1382.32 1353.45 1372.74 1366.43 1361.52 1377.91 C 1351.4 1387.7 1345.42 1393.26 1336.21 1403.87 C 1339.76 1385.64 1340.65 1362.77 1345.24 1345.06 C 1351.03 1322.74 1361.55 1297.39 1369.54 1275.47 C 1375.21 1259.92 1384.18 1229.51 1391.35 1216.54 z" fill="rgb(255,255,255)" transform="translate(0,0)"></path>
<path d="M 530.941 624.712 C 527.098 625.852 526.145 626.902 523.028 625.906 C 522.422 617.622 534.498 612.296 536.864 607.351 L 534.315 606.483 C 535.62 603.552 539.203 599.68 541.343 596.894 C 564.128 567.225 595.69 548.825 624.501 525.963 C 635.529 517.211 645.76 506.701 655.735 496.639 C 661.738 506.838 666.951 512.288 676.697 518.194 C 676.875 518.302 681.476 534.715 682.657 537.892 C 669.775 544.111 660.709 554.041 649.21 561.369 C 620.361 579.753 594.044 604.987 566.462 624.094 C 568.302 619.193 573.077 609.244 571.94 605.214 L 570.149 604.569 C 564.099 610.858 564.476 627.062 554.518 628.931 L 554.072 629.5 L 552.377 628.905 C 549.03 635.01 547.319 636.991 542.938 642.35 C 544.599 636.79 546.221 631.484 548.214 626.033 C 549.921 621.366 553.061 615.88 554.235 611.399 C 552.509 611.717 553.381 611.755 551.622 611.227 C 551.517 608.879 551.529 606.848 551.545 604.505 L 550.016 603.689 C 544.392 606.511 535.678 622.342 531.76 628.411 L 530.941 624.712 z" fill="rgb(255,255,255)" transform="translate(0,0)"></path>
<path d="M 552.377 628.905 C 553.992 623.489 555.085 618.221 558.293 613.67 C 560.396 616.21 555.789 625.857 554.518 628.931 L 554.072 629.5 L 552.377 628.905 z" fill="rgb(26,23,31)" transform="translate(0,0)"></path>
<path d="M 501.542 547.403 C 513.595 536.242 544.673 521.729 559.195 511.94 C 590.539 490.813 627.013 471.132 656.507 447.757 C 651.051 464.459 651.061 476.153 654.507 493.177 C 643.006 499.479 626.262 512.57 614.995 520.751 C 593.191 536.581 571.205 552.347 550.379 569.418 C 553.004 566.311 560.772 557.98 560.694 554.363 C 556.86 555.68 553.276 558.879 549.983 561.407 L 550.468 556.306 L 549.042 556.172 C 541.377 559.991 531.336 569.489 525.077 575.397 C 526.013 572.203 528.188 566.262 526.366 563.39 C 523.814 565.49 520.375 573.123 518.234 576.675 C 519.312 570.714 521.096 564.05 519.38 558.33 L 518.066 557.924 C 515.374 560.485 515.339 562.365 514.471 566.003 L 512.256 568.432 C 510.159 570.703 507.609 573.313 505.744 575.699 C 502.897 580.475 500.378 584.431 498.309 589.642 C 496.612 592.34 495.843 594.415 492.938 595.413 L 491.432 594.826 L 490.256 593.807 C 488.424 596.478 489.581 595.856 487.123 596.809 C 485.319 593.537 484.62 592.46 481.983 589.837 C 480.736 590.175 480.137 590.13 478.841 590.225 C 479.526 587.777 485.948 581.848 488.097 578.387 C 488.636 573.765 496.6 563.189 498.489 558.144 C 499.877 554.44 500.611 551.232 501.542 547.403 z" fill="rgb(255,255,255)" transform="translate(0,0)"></path>
<path d="M 490.142 579.042 C 493.448 575.685 499.744 568.194 503.894 568.136 C 505.095 571.335 504.667 569.716 504.079 573.793 L 505.744 575.699 C 502.897 580.475 500.378 584.431 498.309 589.642 C 496.612 592.34 495.843 594.415 492.938 595.413 L 491.432 594.826 L 490.256 593.807 C 488.424 596.478 489.581 595.856 487.123 596.809 C 485.319 593.537 484.62 592.46 481.983 589.837 C 480.736 590.175 480.137 590.13 478.841 590.225 C 479.526 587.777 485.948 581.848 488.097 578.387 L 490.142 579.042 z" fill="rgb(26,29,62)" transform="translate(0,0)"></path>
<path d="M 504.079 573.793 L 505.744 575.699 C 502.897 580.475 500.378 584.431 498.309 589.642 C 496.612 592.34 495.843 594.415 492.938 595.413 L 491.432 594.826 C 497.469 588.23 500.278 581.801 504.079 573.793 z" fill="rgb(186,187,199)" transform="translate(0,0)"></path>
<path d="M 488.097 578.387 L 490.142 579.042 L 481.983 589.837 C 480.736 590.175 480.137 590.13 478.841 590.225 C 479.526 587.777 485.948 581.848 488.097 578.387 z" fill="rgb(161,161,177)" transform="translate(0,0)"></path>
<path d="M 462.332 525.801 C 469.074 511.698 485.206 488.842 498.922 482.626 C 543.677 462.343 588.955 446.912 626.752 413.356 C 636.02 431.786 643.892 436.344 664.633 433.898 C 648.228 449.974 551.529 500.687 529.049 508.627 L 527.618 508.403 L 527.232 506.724 C 521 507.736 520.525 512.513 517.531 511.211 L 517.876 508.975 C 513.299 509.679 516.145 513.064 511.609 512.606 L 510.464 510.674 C 504.56 512.919 504.743 514.6 502.463 520.444 C 497.514 524.085 500.685 519.242 497.499 521.174 C 494.249 523.146 489.057 526.068 485.833 527.817 C 487.951 520.433 490.443 512.385 492.289 504.991 L 491.171 506.039 C 486.494 510.478 473.884 526.519 471.197 527.834 C 471.338 526.293 471.438 524.853 471.337 523.305 C 469.63 524.263 470.196 523.641 469.406 524.925 L 462.332 525.801 z" fill="rgb(255,255,255)" transform="translate(0,0)"></path>
<path d="M 549.341 360.222 C 557.828 359.574 568.775 361.119 577.44 362.006 C 574.139 372.4 572.665 374.2 579.891 382.98 C 543.487 399.954 492.559 423.135 450.624 423.566 C 449.327 423.579 448.722 421.377 448.036 420.092 L 446.955 420.544 C 446.217 423.585 446.81 422.826 445.073 425.08 C 443.912 423.992 443.375 423.542 442.159 422.571 C 435.028 425.035 433.164 426.133 425.488 427.326 C 422.166 424.653 426.827 419.866 424.025 415.654 C 418.335 417.351 423.3 420.335 416.279 426.048 C 413.128 425.782 414.158 425.915 411.111 424.606 C 402.268 434.762 397.319 426.414 391.843 427.391 C 378.109 429.843 375.125 431.623 361.106 429.538 C 371.229 424.088 406.545 405.429 412.099 398.889 C 424.556 397.462 444.208 392.039 456.625 388.744 C 486.938 380.7 520.165 371.792 549.341 360.222 z" fill="rgb(255,255,255)" transform="translate(0,0)"></path>
<path d="M 390.299 295.42 C 404.343 294.823 425.045 296.76 440.098 297.041 C 476.762 298.03 513.452 297.379 550.057 295.091 C 544.094 301.626 537.307 308.187 530.897 314.284 C 524.632 320.243 528.123 320.233 525.166 326.353 C 513.462 327.288 504.862 328.014 493.235 330.072 C 486.854 330.816 480.196 331.981 473.902 333.276 C 426.848 342.959 379.662 330.191 337.846 309.301 C 355.959 302.106 370.787 297.015 390.299 295.42 z" fill="rgb(255,255,255)" transform="translate(0,0)"></path>
<path d="M 702.419 859.394 C 706.505 844.748 710.35 838.673 720.799 827.66 C 747.472 799.549 764.038 769.336 779.77 734.325 C 791.099 756.784 793.885 749.619 808.166 762.692 C 809.32 763.748 819.429 798.927 822.017 805.603 C 798.62 828.247 770.024 857.063 745.888 878.293 C 751.307 863.501 759.755 856.634 768.002 843.885 C 783.307 820.226 799.757 795.124 805.348 767.388 C 782.652 801.705 761.83 834.735 727.446 858.476 L 724.41 857.778 C 728.413 853.206 730.709 850.924 733.512 845.41 C 731.387 847.487 725.355 854.166 723.241 854.446 C 723.465 852.285 723.639 850.626 723.686 848.457 L 721.656 849.878 L 720.703 847.811 C 714.207 851.313 710.054 866.236 703.938 869.497 L 704.366 866.024 L 703.572 865.364 C 701.688 865.367 702.68 865.553 700.654 864.563 C 700.338 861.268 700.239 862.936 702.419 859.394 z" fill="rgb(255,255,255)" transform="translate(0,0)"></path>
<path d="M 702.419 859.394 C 706.012 853.608 706.794 850.474 711.999 846.547 L 713.266 846.651 C 712.73 854.392 707.776 859.126 704.366 866.024 L 703.572 865.364 C 701.688 865.367 702.68 865.553 700.654 864.563 C 700.338 861.268 700.239 862.936 702.419 859.394 z" fill="rgb(26,29,62)" transform="translate(0,0)"></path>
<path d="M 392.295 251.407 C 401.534 250.2 418.669 251.404 428.317 251.631 C 467.127 252.544 509.706 261.67 547.956 262.234 C 539.21 271.277 542.987 277.388 545.839 288.973 C 535.744 290.36 521.806 290.808 511.595 291.146 C 454.529 295.307 404.381 284.86 353.14 260.348 C 368.557 254.948 376.077 252.927 392.295 251.407 z" fill="rgb(255,255,255)" transform="translate(0,0)"></path>
<path d="M 1179.93 1073.94 C 1184.46 1077.35 1194.92 1093.21 1202.45 1099.93 C 1192.89 1106.52 1181.9 1112.11 1172.04 1118.15 C 1133.61 1141.69 1101.87 1155.24 1056.54 1161.09 C 1045.63 1161.35 1041.77 1160.67 1031.36 1158.19 C 1040.78 1149.88 1068.67 1125.79 1079.13 1122.22 C 1115.68 1109.76 1145.82 1090.17 1179.93 1073.94 z" fill="rgb(255,255,255)" transform="translate(0,0)"></path>
<path d="M 751.18 692.218 C 757.739 700.499 764.265 706.702 773.875 711.499 L 773.874 711.064 C 775.192 715.873 776.469 720.795 777.97 725.542 C 774.517 729.845 771.883 734.234 768.976 738.906 C 751.565 766.887 730.996 793.347 706.758 815.752 C 704.388 817.943 696.357 824.634 693.59 825.475 C 692.418 825.526 691.396 825.035 690.154 824.651 C 687.504 827.893 684.01 831.002 679.782 831.823 L 677.034 832.533 L 675.327 830.936 L 674.543 831.173 C 672.1 834.143 672.769 832.472 672.576 836.406 C 670.236 840.001 671.766 838.906 668.277 840.348 C 662.363 839.044 658.177 832.356 661.953 827.007 L 662.927 827.157 L 663.737 828.521 C 665.757 818.659 674.486 813.208 681.928 807.181 L 681.749 805.157 C 679.001 806.882 676.963 808.943 674.423 808.722 C 674.636 805.15 681.96 796.754 684.401 793.571 C 708.701 761.883 732.743 727.598 751.18 692.218 z" fill="rgb(255,255,255)" transform="translate(0,0)"></path>
<path d="M 681.749 805.157 L 684.067 803.597 C 686.69 804.95 686.721 805.134 689.513 805.971 L 689.941 808.163 L 691.182 811.735 C 691.8 818.053 684.15 825.158 679.782 831.823 L 677.034 832.533 L 675.327 830.936 L 674.543 831.173 C 672.1 834.143 672.769 832.472 672.576 836.406 C 670.236 840.001 671.766 838.906 668.277 840.348 C 662.363 839.044 658.177 832.356 661.953 827.007 L 662.927 827.157 L 663.737 828.521 C 665.757 818.659 674.486 813.208 681.928 807.181 L 681.749 805.157 z" fill="rgb(26,29,62)" transform="translate(0,0)"></path>
<path d="M 691.182 811.735 C 691.8 818.053 684.15 825.158 679.782 831.823 L 677.034 832.533 L 675.327 830.936 C 682.128 824.75 684.593 817.747 691.182 811.735 z" fill="rgb(26,23,31)" transform="translate(0,0)"></path>
<path d="M 681.928 807.181 C 678.827 812.697 668.44 824.01 663.737 828.521 C 665.757 818.659 674.486 813.208 681.928 807.181 z" fill="rgb(232,230,230)" transform="translate(0,0)"></path>
<path d="M 689.941 808.163 L 691.182 811.735 C 684.593 817.747 682.128 824.75 675.327 830.936 C 679.429 822.685 684.856 815.92 689.941 808.163 z" fill="rgb(186,187,199)" transform="translate(0,0)"></path>
<path d="M 690.154 824.651 C 692.285 821.391 692.873 819.902 696.264 817.932 L 697.075 819.076 C 695.958 822.301 695.485 822.705 693.59 825.475 C 692.418 825.526 691.396 825.035 690.154 824.651 z" fill="rgb(26,29,62)" transform="translate(0,0)"></path>
<path d="M 524.917 335.243 L 525.993 335.856 C 531.729 346.023 535.762 349.893 545.282 355.41 C 518.01 363.998 490.473 371.723 462.713 378.574 C 432.201 386.232 414.109 390.272 382.366 391.43 C 375.56 391.486 367.958 391.156 361.088 391.009 C 372.877 380.118 410.451 356.668 426.037 354.429 C 460.384 349.494 491.051 343.622 524.917 335.243 z" fill="rgb(255,255,255)" transform="translate(0,0)"></path>
<path d="M 424.687 200.408 C 430.072 199.688 443.03 199.035 447.914 201.024 C 480.395 214.25 511.606 230.294 544.608 242.391 C 551.935 245.077 561.366 248.658 568.013 252.456 L 551.12 257.184 C 550.158 257.207 549.196 257.22 548.234 257.223 C 515.686 257.293 460.023 243.037 432.594 225.483 C 421.477 218.368 414.947 212.464 405.646 203.195 C 412.711 201.531 417.471 201.123 424.687 200.408 z" fill="rgb(255,255,255)" transform="translate(0,0)"></path>
<path d="M 1368.16 680.754 C 1400.23 690.717 1417.93 712.767 1396.89 744.668 C 1390.71 725.047 1380.93 724.63 1361.93 721.346 C 1342.18 717.934 1323.78 713.219 1303.75 711.843 C 1306.14 707.91 1309.04 702.612 1312.1 699.349 C 1314.42 700.547 1314.24 700.588 1316.81 700.48 C 1319.17 697.683 1318.58 696.857 1319.32 692.597 L 1320.19 688.388 C 1328.66 683.867 1339.01 709.316 1368.16 680.754 z" fill="rgb(255,255,255)" transform="translate(0,0)"></path>
<path d="M 1689.74 1244.22 C 1703.6 1249.74 1701.4 1253.87 1720.94 1252.64 C 1734.89 1282.62 1753.77 1339.77 1761.72 1371.54 C 1761.5 1371.37 1761.28 1371.21 1761.07 1371.05 C 1736.13 1341.85 1712.14 1308.78 1694.77 1274.54 C 1692.22 1269.5 1690.15 1249.15 1689.74 1244.22 z" fill="rgb(255,255,255)" transform="translate(0,0)"></path>
<path d="M 1709.18 1450.87 C 1711.88 1454.11 1715.8 1464.11 1717.59 1468.45 C 1742.59 1529.51 1758.21 1594.01 1779.65 1656.43 C 1787.14 1678.24 1797.39 1704.27 1802.96 1726.2 C 1798.92 1722.69 1792.62 1709.84 1789.96 1704.6 C 1765.66 1656.72 1751.25 1605.38 1736.22 1554.03 C 1726.61 1521.21 1715.23 1484.47 1709.18 1450.87 z" fill="rgb(255,255,255)" transform="translate(0,0)"></path>
<path d="M 278.745 290.467 C 301.423 289.949 324.109 289.862 346.791 290.208 C 341.038 293.602 331.997 298.926 325.47 299.644 C 285.109 304.078 241.654 303.717 200.984 305.262 C 171.267 307.065 156.951 303.925 129.366 302.594 C 166.931 290.741 237.527 291.666 278.745 290.467 z" fill="rgb(255,255,255)" transform="translate(0,0)"></path>
<path d="M 1756.54 1404.48 L 1760.09 1406.16 C 1792.68 1469.78 1820.26 1535.24 1857.6 1596.33 C 1870.09 1616.76 1884.49 1637.09 1895.45 1658.32 C 1852.89 1620.59 1799.55 1511.38 1776.94 1457.82 C 1770.81 1443.29 1760.61 1419.73 1756.54 1404.48 z" fill="rgb(255,255,255)" transform="translate(0,0)"></path>
<path d="M 164.809 188.43 C 201.479 185.918 365.105 196.627 397.477 211.728 C 379.149 211.623 354.436 209.745 335.673 208.927 C 288.714 206.883 240.69 204.35 194.503 195.609 C 186.301 194.056 172.136 191.426 164.809 188.43 z" fill="rgb(255,255,255)" transform="translate(0,0)"></path>
<path d="M 125.623 262.807 C 143.084 254.98 161.385 249.181 180.168 245.523 C 204.469 240.965 237.871 239.994 263.119 238.777 C 293.895 237.294 327.76 235.614 358.305 239.061 L 358.031 240.395 C 318.312 249.849 281.045 248.953 240.323 250.768 C 197.497 252.677 167.145 255.849 125.623 262.807 z" fill="rgb(255,255,255)" transform="translate(0,0)"></path>
<path d="M 216.958 134.178 C 226.164 134.856 241.261 137.864 250.666 139.49 C 273.942 143.568 297.188 147.813 320.403 152.226 C 362.721 160.08 402.584 162.78 441.216 182.923 C 435.131 182.663 402.683 177.216 394.878 175.831 C 344.566 166.905 260.446 156.909 216.958 134.178 z" fill="rgb(255,255,255)" transform="translate(0,0)"></path>
<path d="M 748.827 1012.28 C 770.216 1011.75 778.108 1002.19 795.593 993.915 L 787.886 1003.53 C 789.661 1010.09 790.479 1011.38 793.753 1017.03 C 790.051 1024.37 787.77 1027.16 789.378 1035.62 C 789.818 1037.93 775.272 1043.54 772.199 1044.85 C 766.997 1047.06 748.453 1057.48 744.346 1055.97 L 743.142 1053.05 L 742.493 1052.94 L 742.518 1051.49 C 740.124 1049.3 735.871 1048.95 732.243 1048.11 L 734.792 1047.17 L 733.648 1045.37 C 744.966 1040.14 753.964 1031.38 760.645 1020.94 C 743.311 1026.97 738.955 1031.23 720.192 1035.69 C 730.731 1027.89 738.942 1019.88 748.827 1012.28 z" fill="rgb(255,255,255)" transform="translate(0,0)"></path>
<path d="M 734.792 1047.17 C 740.668 1048.06 742.866 1048.58 748.928 1047.87 L 749.487 1048.7 L 750.187 1048.27 L 748.106 1047.98 L 751.276 1047.97 C 748.172 1050.45 745.385 1051.14 743.142 1053.05 L 742.493 1052.94 L 742.518 1051.49 C 740.124 1049.3 735.871 1048.95 732.243 1048.11 L 734.792 1047.17 z" fill="rgb(62,59,69)" transform="translate(0,0)"></path>
<path d="M 1783.08 1356.5 C 1792.49 1362.37 1835.62 1431.32 1846.95 1445.3 C 1873.76 1478.4 1903.26 1506.49 1933.63 1536.27 C 1909.56 1529.95 1875.42 1492.99 1858.83 1473.89 C 1828.5 1438.96 1799.95 1399.87 1783.08 1356.5 z" fill="rgb(255,255,255)" transform="translate(0,0)"></path>
<path d="M 459.089 199.373 C 466.644 198.365 476.029 198.883 483.589 198.731 C 515.564 198.087 533.078 206.271 561.762 218.332 C 561.209 228.797 554.007 221.45 559.777 242.731 L 560.501 245.089 L 559.453 245.496 C 525.552 230.947 492.889 214.517 459.089 199.373 z" fill="rgb(255,255,255)" transform="translate(0,0)"></path>
<path d="M 1649.9 1493.76 C 1654.31 1499.78 1661.27 1519.4 1664.12 1526.63 C 1680.39 1567.83 1693.95 1610.05 1705.11 1652.91 C 1709.45 1669.59 1715.48 1690.34 1718.17 1707.29 C 1706.84 1693.16 1689.48 1634.2 1683.54 1616.41 C 1670.44 1577.25 1657.81 1534.27 1649.9 1493.76 z" fill="rgb(255,255,255)" transform="translate(0,0)"></path>
<path d="M 309.745 338.465 C 331.344 338.091 357.857 337.147 378.306 343.281 C 330.349 346.703 282.316 348.976 234.25 350.096 C 208.614 350.751 186.195 350.627 160.811 347.167 C 202.865 338.871 265.437 340.076 309.745 338.465 z" fill="rgb(255,255,255)" transform="translate(0,0)"></path>
<path d="M 1741.2 1263.09 C 1783.48 1301.96 1825.89 1338.68 1872.48 1372.34 C 1883.86 1380.56 1897.17 1390.81 1907.22 1400.46 C 1854.91 1378.66 1773.88 1309.12 1738.9 1263.53 L 1741.2 1263.09 z" fill="rgb(255,255,255)" transform="translate(0,0)"></path>
<path d="M 1507.44 1069.71 C 1510.71 1087.09 1502.61 1141.19 1482.99 1146.71 C 1471.41 1144.27 1471.15 1117.04 1470.54 1107.09 C 1470.95 1096.04 1472.28 1085.05 1474.49 1074.22 C 1476.55 1081.12 1484.37 1113.3 1490.88 1113.8 C 1495.46 1109.5 1504.58 1078.08 1507.44 1069.71 z" fill="rgb(255,255,255)" transform="translate(0,0)"></path>
<path d="M 1448.45 1079.03 L 1451.12 1080.95 C 1451.27 1087.9 1451.25 1094.85 1451.08 1101.8 C 1450.52 1125.4 1446.36 1139.22 1428.3 1156.41 C 1418.48 1139.59 1416.34 1118.09 1406.73 1100.13 C 1408.55 1094.3 1409.6 1090.65 1413 1085.49 C 1417.58 1099.22 1426.13 1114.89 1432.81 1128.1 C 1439.81 1109.79 1444.11 1098.29 1448.45 1079.03 z" fill="rgb(255,255,255)" transform="translate(0,0)"></path>
<path d="M 174.104 264.052 C 206.937 262.516 240.45 262.411 273.335 262.912 C 297.249 263.276 326.683 260.576 348.086 271.548 C 295.047 271.759 241.077 271.611 188.111 268.622 C 182.843 268.325 177.48 267.122 172.308 266.727 C 172.5 265.197 172.654 265.642 174.104 264.052 z" fill="rgb(255,255,255)" transform="translate(0,0)"></path>
<path d="M 363.93 108.78 C 369.237 110.063 399.783 125.026 408.983 128.677 C 424.552 134.915 440.258 140.809 456.087 146.354 C 478.385 153.981 503.918 161.326 524.021 172.986 C 519.549 172.913 502.049 167.28 495.901 165.701 C 441.76 151.794 407.339 145.538 363.93 108.78 z" fill="rgb(255,255,255)" transform="translate(0,0)"></path>
<path d="M 315.515 369.437 C 333.112 368.574 352.705 368.984 370.318 369.194 C 341.267 380.286 300.519 380.325 269.082 381.149 C 250.38 382.119 231.629 381.489 213.034 379.264 C 246.75 372.749 281.256 370.761 315.515 369.437 z" fill="rgb(255,255,255)" transform="translate(0,0)"></path>
<path d="M 1464.22 1121.72 C 1470.49 1146.51 1471.48 1175.12 1499.05 1141.14 C 1503.65 1150.7 1508.43 1162.64 1512.45 1172.5 C 1512.55 1173.35 1512.54 1172.72 1511.62 1174.2 C 1495.07 1179.96 1494.63 1174.02 1482.95 1162.79 C 1455.01 1186.42 1461.46 1134.81 1464.22 1121.72 z" fill="rgb(255,255,255)" transform="translate(0,0)"></path>
<path d="M 627.119 1036.8 C 631.937 1039.42 633.556 1041.16 639.296 1043.59 C 646.949 1041.58 650.5 1040.24 657.849 1037.19 C 642.084 1049.71 632.297 1059.36 618.551 1074.02 C 612.15 1078.55 601.729 1084.35 594.74 1078.64 C 592.181 1068.29 602.798 1063.91 610.321 1060.4 C 617.673 1047.78 615.287 1046.84 627.119 1036.8 z" fill="rgb(255,255,255)" transform="translate(0,0)"></path>
<path d="M 1320.85 728.718 C 1324.68 727.911 1330.75 726.758 1334.47 726.347 C 1343.23 725.378 1374.7 729.379 1379.39 736.153 C 1374.78 741.681 1300.6 738.639 1288.92 738.326 C 1286.64 738.265 1276.67 732.467 1274.03 730.821 C 1284.31 731.505 1293.71 732.897 1303.81 731.398 L 1304.31 728.402 C 1309.14 724.176 1315.75 725.599 1320.85 728.718 z" fill="rgb(255,255,255)" transform="translate(0,0)"></path>
<path d="M 1303.81 731.398 L 1304.31 728.402 C 1309.14 724.176 1315.75 725.599 1320.85 728.718 C 1315.15 729.68 1309.54 730.652 1303.81 731.398 z" fill="rgb(26,29,62)" transform="translate(0,0)"></path>
<path d="M 1360.27 976.685 C 1361.38 981.298 1360.28 989.409 1359.7 994.288 C 1355.4 1030.7 1348.29 1047.76 1325.53 1075.24 C 1322.69 1054.55 1339.26 1029.46 1347.09 1011.38 C 1352.04 999.95 1356.11 988.432 1360.27 976.685 z" fill="rgb(255,255,255)" transform="translate(0,0)"></path>
<path d="M 657.317 984.901 L 658.469 985.355 C 647.351 996.791 630.103 1011.83 625.776 1027.72 L 625.361 1029.29 C 618.663 1031.99 611.985 1034.75 605.329 1037.55 C 590.84 1019.44 646.35 991.106 657.317 984.901 z" fill="rgb(255,255,255)" transform="translate(0,0)"></path>
<path d="M 860.204 998.441 C 863.293 998.377 866.353 997.892 868.979 998.962 C 866.976 1001.79 853.427 1009.52 849.596 1012.18 C 836.435 1021.33 821.515 1027.99 806.435 1033.21 C 804.058 1033.73 803.996 1033.66 801.547 1033.78 L 800.283 1032.45 C 798.074 1021.53 801.146 1018.14 811.893 1017.25 C 829.579 1015.78 844.233 1004.25 860.204 998.441 z" fill="rgb(255,255,255)" transform="translate(0,0)"></path>
<path d="M 1200.79 928.521 L 1202.16 930.23 C 1195.66 939.642 1160.56 994.542 1149.16 985.918 C 1148.2 982.579 1148.3 977.281 1150.62 974.564 C 1157.94 965.982 1168.19 960.524 1176.7 953.2 C 1185.55 945.587 1193.14 937.272 1200.79 928.521 z" fill="rgb(255,255,255)" transform="translate(0,0)"></path>
<path d="M 322.518 404.489 C 327.196 404.458 350.058 404.307 352.348 405.983 C 349.406 415.668 310.976 414.273 300.828 414.228 C 290.131 414.058 277.028 412.45 266.513 410.583 C 286.071 405.053 302.404 405.03 322.518 404.489 z" fill="rgb(255,255,255)" transform="translate(0,0)"></path>
<path d="M 1603.59 1567.56 L 1605.1 1565.11 C 1611.94 1581.06 1617.28 1592.73 1625.67 1608.1 C 1626.28 1594.84 1627.22 1581.59 1628.48 1568.38 C 1630.9 1577.83 1634.15 1631.56 1635.3 1644.69 C 1625.75 1627.07 1619.86 1613.27 1613.22 1594.27 C 1610.86 1587.54 1606.31 1573.69 1603.59 1567.56 z" fill="rgb(255,255,255)" transform="translate(0,0)"></path>
<path d="M 818.015 957.746 L 818.436 959.526 C 815.896 961.972 814.459 963.408 814.081 966.48 C 817.044 967.11 819.528 967.344 822.515 967.672 C 813.202 973.642 769.504 999.32 761.071 1000.65 L 760.078 999.353 C 760.966 990.205 770.431 981.001 779.212 981.884 C 779.922 984.13 779.298 983.353 780.682 984.488 C 791.176 975.933 806.576 965.863 818.015 957.746 z" fill="rgb(255,255,255)" transform="translate(0,0)"></path>
<path d="M 539.045 147.577 C 541.602 148.983 557.181 170.14 562.188 174.819 C 578.741 190.285 595.116 198.897 613.466 210.959 C 606.67 210.193 577.798 197.635 571.207 193.209 C 553.551 181.351 543.733 168.011 539.045 147.577 z" fill="rgb(255,255,255)" transform="translate(0,0)"></path>
<path d="M 1174.86 870.908 C 1177.78 874.015 1168.41 884.751 1167.59 889.422 C 1170.1 889.149 1169.98 889.081 1172.48 889.249 C 1162.57 895.227 1152.26 903.245 1142.68 908.547 C 1139.46 907.916 1137.71 907.407 1134.58 906.417 C 1130.72 907.844 1126.36 909.813 1122.51 911.429 C 1132.31 904.941 1167.51 878.614 1174.86 870.908 z" fill="rgb(255,255,255)" transform="translate(0,0)"></path>
<path d="M 433.655 446.439 L 436.119 446.387 C 429.524 454.186 394.244 460.745 383.184 462.352 C 380.567 461.951 381.521 462.568 379.76 461.11 C 399.705 445.368 408.541 449.99 433.655 446.439 z" fill="rgb(255,255,255)" transform="translate(0,0)"></path>
<path d="M 736.635 1060.42 C 731.586 1062.48 714.792 1069.34 711.281 1064.15 C 712.801 1057.78 719.33 1053.99 724.126 1049.8 C 727.254 1047.07 728.721 1047.63 732.243 1048.11 C 735.871 1048.95 740.124 1049.3 742.518 1051.49 L 742.493 1052.94 C 740.443 1055.14 738.465 1057.97 736.635 1060.42 z" fill="rgb(255,255,255)" transform="translate(0,0)"></path>
<path d="M 1544.87 1529.44 C 1548.34 1537.43 1553.11 1546.99 1557.26 1554.73 C 1559.01 1545.52 1560.29 1538.7 1563.04 1529.66 C 1562.99 1546.3 1563.2 1563.69 1562.85 1580.26 C 1558.57 1570.17 1554.48 1559.99 1550.59 1549.75 C 1549.31 1546.35 1545.1 1534.34 1543.65 1531.54 L 1544.87 1529.44 z" fill="rgb(255,255,255)" transform="translate(0,0)"></path>
<path d="M 1440.76 1421.81 C 1441.51 1435.51 1402.72 1464.02 1391.65 1470.47 L 1391.45 1469.23 C 1392.44 1466.41 1400.33 1461.74 1403.33 1459.62 C 1418.87 1448.67 1429.03 1436.69 1440.76 1421.81 z" fill="rgb(255,255,255)" transform="translate(0,0)"></path>
<path d="M 514.471 566.003 C 516.208 577.425 509.709 582.724 501.647 589.316 L 498.309 589.642 C 500.378 584.431 502.897 580.475 505.744 575.699 C 507.609 573.313 510.159 570.703 512.256 568.432 L 514.471 566.003 z" fill="rgb(26,29,62)" transform="translate(0,0)"></path>
<path d="M 514.471 566.003 C 516.208 577.425 509.709 582.724 501.647 589.316 C 504.834 580.154 512.289 580.705 512.256 568.432 L 514.471 566.003 z" fill="rgb(186,187,199)" transform="translate(0,0)"></path>
<path d="M 1264.53 724.741 C 1271.31 720.773 1275.47 717.749 1283.27 718.763 L 1285.11 722.877 C 1282.69 724.694 1279.5 726.705 1276.94 728.417 C 1272.7 727.286 1268.71 726.041 1264.53 724.741 z" fill="rgb(255,255,255)" transform="translate(0,0)"></path>
<path d="M 1500.61 1466.89 L 1501.3 1467.63 C 1500.6 1477.1 1478.09 1499.18 1471.09 1505.88 L 1470.78 1505.65 C 1471.08 1504.21 1497.21 1471.84 1500.61 1466.89 z" fill="rgb(232,230,230)" transform="translate(0,0)"></path>
<path d="M 1470.14 1458.7 C 1475.29 1476.68 1469.92 1490.15 1467.88 1507.19 L 1467.71 1507.76 C 1466.78 1503.08 1469.67 1466.09 1470.14 1458.7 z" fill="rgb(232,230,230)" transform="translate(0,0)"></path>
<path d="M 1378.6 1383.1 L 1378.52 1384.32 C 1370.3 1397.07 1352.14 1411.66 1338.12 1416.72 C 1338.42 1414.76 1343.96 1412.02 1346.35 1410.55 C 1358.25 1403.23 1368.42 1392.74 1378.6 1383.1 z" fill="rgb(186,187,199)" transform="translate(0,0)"></path>
<path d="M 1314.94 1356 L 1315.44 1356.58 C 1313.14 1363.47 1293.53 1379.06 1285.98 1382.96 L 1285.31 1382.45 C 1287.72 1379.53 1309.6 1361.04 1314.94 1356 z" fill="rgb(232,230,230)" transform="translate(0,0)"></path>
<path d="M 739.401 930.83 L 741.348 931.462 L 741.573 933.236 C 738.574 937.707 734.352 940.478 730.063 943.841 C 728.588 943.181 728.44 942.699 727.191 941.442 C 727.291 935.171 734.101 932.209 739.401 930.83 z" fill="rgb(255,255,255)" transform="translate(0,0)"></path>
<path d="M 1283.27 718.763 C 1288.79 718.934 1299.47 718.172 1305.75 718.102 L 1312.76 719.546 L 1305.67 720.895 C 1298.32 721.104 1292.38 721.43 1285.11 722.877 L 1283.27 718.763 z" fill="rgb(232,230,230)" transform="translate(0,0)"></path>
<path d="M 1387.04 1432.64 C 1389.42 1439.41 1387.08 1464.7 1386.62 1473.13 C 1383.58 1465.88 1385.84 1441.04 1387.04 1432.64 z" fill="rgb(161,161,177)" transform="translate(0,0)"></path>
<path d="M 724.41 857.778 L 727.446 858.476 C 719.076 863.794 710.309 871.382 703.179 878.301 C 701.738 877.806 702.193 878.267 701.622 877.138 C 708.918 870.024 715.64 862.959 724.41 857.778 z" fill="rgb(186,187,199)" transform="translate(0,0)"></path>
<path d="M 368.135 231.381 C 377.635 231.504 399.418 231.691 407.856 234.803 C 399.992 235.063 374.88 234.471 368.135 231.381 z" fill="rgb(92,91,115)" transform="translate(0,0)"></path>
<path d="M 1328.16 1391 C 1328.12 1400.61 1328.02 1407.69 1326.14 1417.13 C 1324.08 1411.5 1325.52 1397.87 1326.1 1391.79 L 1328.16 1391 z" fill="rgb(186,187,199)" transform="translate(0,0)"></path>
<path d="M 1305.75 718.102 C 1315.18 717.95 1323.09 718.04 1332.51 718.485 C 1324.4 720.971 1314.12 721.228 1305.67 720.895 L 1312.76 719.546 L 1305.75 718.102 z" fill="rgb(137,139,153)" transform="translate(0,0)"></path>
<path d="M 462.332 525.801 L 469.406 524.925 C 456.877 528.176 459.421 537.826 454.41 548.28 L 453.167 548.008 C 453.191 542.757 458.778 529.68 462.332 525.801 z" fill="rgb(92,91,115)" transform="translate(0,0)"></path>
<path d="M 496.776 552.069 L 497.37 552.571 C 496.409 557.51 490.647 562.806 487.032 566.348 L 486.134 565.552 C 487.235 559.745 492.401 555.99 496.776 552.069 z" fill="rgb(232,230,230)" transform="translate(0,0)"></path>
<path d="M 635.359 768.437 L 637.599 770.101 C 630.122 773.695 627.076 786.244 621.873 790.594 L 621.069 789.942 C 622.957 783.69 630.92 773.448 635.359 768.437 z" fill="rgb(186,187,199)" transform="translate(0,0)"></path>
<path d="M 1276.53 1364.92 L 1277.23 1365.69 C 1278.25 1370.97 1278.92 1380.33 1277.33 1385.49 C 1273.52 1381.43 1275.93 1370.41 1276.53 1364.92 z" fill="rgb(232,230,230)" transform="translate(0,0)"></path>
<path d="M 530.941 624.712 L 531.76 628.411 C 529.609 635.52 528.182 636.325 525.849 641.638 C 526.105 638.123 529.574 628.943 530.941 624.712 z" fill="rgb(161,161,177)" transform="translate(0,0)"></path>
<path d="M 1543.65 1531.54 C 1540.56 1522.61 1537.77 1514.4 1535.14 1505.29 C 1539.06 1513.75 1541.73 1520.67 1544.87 1529.44 L 1543.65 1531.54 z" fill="rgb(92,91,115)" transform="translate(0,0)"></path>
<path d="M 783.535 945.367 C 779.483 948.02 774.133 950.78 769.813 953.161 L 768.482 952.108 L 769.21 953.422 L 767.837 953.886 L 767.28 953.389 C 771.565 949.62 776.536 947.084 781.503 944.217 L 783.535 945.367 z" fill="rgb(161,161,177)" transform="translate(0,0)"></path>
<path d="M 1603.59 1567.56 C 1602.17 1562.95 1600.92 1559.9 1600.82 1555.06 C 1603.08 1557.42 1603.96 1561.71 1605.1 1565.11 L 1603.59 1567.56 z" fill="rgb(186,187,199)" transform="translate(0,0)"></path>
<path d="M 172.308 266.727 C 169.33 266.591 166.446 266.918 164.229 265.203 C 167.032 263.54 170.703 264.021 174.104 264.052 C 172.654 265.642 172.5 265.197 172.308 266.727 z" fill="rgb(186,187,199)" transform="translate(0,0)"></path>
<path d="M 358.305 239.061 C 362.936 238.467 366.248 237.672 370.794 238.658 C 368.163 240.271 361.349 240.258 358.031 240.395 L 358.305 239.061 z" fill="rgb(26,29,62)" transform="translate(0,0)"></path>
<path d="M 1200.79 928.521 C 1205.02 923.207 1206.31 921.888 1211.43 917.408 C 1208.66 921.425 1205.32 926.648 1202.16 930.23 L 1200.79 928.521 z" fill="rgb(186,187,199)" transform="translate(0,0)"></path>
<path d="M 1738.9 1263.53 C 1734.3 1258.3 1733.18 1256.5 1729.63 1250.63 C 1733.13 1254.38 1737.99 1259.28 1741.2 1263.09 L 1738.9 1263.53 z" fill="rgb(186,187,199)" transform="translate(0,0)"></path>
<path d="M 1297.54 960.524 C 1298.7 956.85 1298.7 955.148 1301.11 952.482 C 1301.72 955.787 1300.58 958.044 1299.53 961.296 L 1297.54 960.524 z" fill="rgb(137,139,153)" transform="translate(0,0)"></path>
<path d="M 521.549 637.737 C 522.011 642.379 519.83 646.259 517.621 650.272 C 516.882 646.11 519.66 641.589 521.549 637.737 z" fill="rgb(116,120,149)" transform="translate(0,0)"></path>
<path d="M 1756.54 1404.48 C 1755.6 1401.47 1754.77 1400.7 1755.46 1398.18 C 1758.19 1401.33 1758.39 1402.24 1760.09 1406.16 L 1756.54 1404.48 z" fill="rgb(232,230,230)" transform="translate(0,0)"></path>
<path d="M 1326.1 1391.79 C 1326.08 1388.58 1325.58 1385.58 1327.23 1383.02 C 1328.61 1386.18 1328.28 1387.59 1328.16 1391 L 1326.1 1391.79 z" fill="rgb(116,120,149)" transform="translate(0,0)"></path>
<path d="M 1448.45 1079.03 L 1449.61 1074.96 L 1450.57 1074.85 C 1450.94 1077.38 1451.14 1078.41 1451.12 1080.95 L 1448.45 1079.03 z" fill="rgb(232,230,230)" transform="translate(0,0)"></path>
<metadata><recraft-signature>{"signed_by": "recraft", "signature_b64": "alnTl6XmxzGn4xkwbwzfNQHTB4aZWcS8u6BzP9M0cwontcYRK4F7dR3yCwfaZsl3gmc8adrOiXelt86YsJQLDQ==", "signing_algo": "Ed25519", "generation_timestamp": 1765379286, "identifier": "200bbf2c-cc8e-4360-a025-91fe1217310a"}</recraft-signature></metadata></svg>