<svg xmlns="http://www.w3.org/2000/svg" height="1024" preserveAspectRatio="none" style="display: block;" version="1.1" viewBox="0 0 2048 2048" width="1024">
<path d="M 0 0 L 2048 0 L 2048 2048 L 0 2048 L 0 0 z" fill="rgb(255,255,255)" transform="translate(0,0)"></path>
<path d="M 918.393 129.322 C 954.321 128.037 977.299 156.025 1003.4 177.441 L 1096 252.826 L 1512.54 592.786 C 1631.46 688.679 1749.29 785.92 1866 884.49 C 1885.86 901.254 1905.98 917.705 1926.35 933.836 C 1942.31 946.576 1961.98 959.039 1972.26 976.974 C 1981.18 992.552 1983.53 1011.05 1978.78 1028.36 C 1975.64 1039.37 1968.96 1050.8 1960.03 1058.12 C 1906.34 1102.11 1851.65 1145.52 1798.55 1190.21 C 1609.47 1347.76 1419.37 1504.09 1228.27 1659.19 L 1030.28 1821.46 C 1016.71 1832.47 1003.24 1843.6 989.886 1854.87 C 976.885 1865.81 966.617 1875.75 951.696 1884.04 C 905.18 1905.93 879.933 1877.21 846.177 1849.44 L 781.8 1796.65 L 733.451 1757.2 C 723.191 1748.88 710.323 1739.16 701.439 1729.61 C 688.488 1714.5 685.766 1692.83 690.095 1674.17 C 695.419 1651.22 711.315 1641.92 728.127 1628.19 L 765.233 1597.31 L 917.435 1472.88 L 1284.58 1170.92 L 1425.51 1054.78 C 1442.68 1040.49 1464.99 1023.51 1481.17 1008.81 C 1455.47 985.928 1426.77 964.141 1400.07 942.356 L 1277.87 841.509 L 912.194 540.898 C 865.143 503.224 818.405 465.16 771.985 426.711 L 732.66 394.995 C 711.61 378.162 691.746 364.994 688.489 335.921 C 684.29 298.446 712.386 280.191 737.593 259.719 L 799.027 210.114 L 852.116 166.818 C 874.583 148.412 888.486 132.949 918.393 129.322 z" fill="rgb(33,36,72)" transform="translate(0,0)"></path>
<path d="M 922.476 230.761 C 927.758 233.245 965.797 265.983 973.088 271.887 C 1037.21 323.596 1100.91 375.82 1164.19 428.553 L 1514.33 716.634 C 1588.65 776.363 1662.45 836.732 1735.72 897.735 C 1779.92 933.98 1827.65 972.189 1870.84 1009.29 C 1854.65 1024.02 1834.65 1038.92 1817.62 1053.1 L 1671.98 1173.45 L 1085.83 1655.46 C 1032.93 1699.51 973.26 1744.4 921.717 1789.51 C 920.996 1789.45 809.88 1698.32 801.458 1690.91 C 815.86 1676.73 842.093 1656.93 858.516 1643.35 L 984.588 1539.71 L 1423.49 1178.31 L 1568.61 1058.16 C 1586.45 1043.21 1611.15 1024.46 1627.45 1009.06 C 1588.95 974.539 1543.23 938.476 1502.94 905.732 L 1354.13 783.141 L 1040.31 526.48 C 960.265 460.454 879.82 394.913 798.981 329.861 C 818.392 316.512 836.3 300.901 854.611 286.059 C 877.259 267.701 900.187 249.543 922.476 230.761 z" fill="rgb(255,255,255)" transform="translate(0,0)"></path>
<path d="M 288.5 300.296 C 309.19 297.855 327.07 303.329 343.339 316.135 C 382.441 346.911 419.755 379.878 458.291 411.336 L 766.75 665.346 L 990.52 849.608 C 1018.32 871.911 1045.98 894.387 1073.51 917.034 C 1087.85 928.778 1124.81 957.75 1133.67 971.038 C 1143.39 985.869 1146.92 1003.92 1143.48 1021.32 C 1140.79 1034.82 1134.09 1047.88 1123.73 1056.85 C 1101.54 1076.09 1077.98 1095.31 1055.17 1113.76 L 961.818 1190.37 L 681.878 1422.26 L 437.629 1625.68 C 414.961 1644.65 392.129 1663.43 369.138 1682.01 C 357.724 1691.28 344.161 1703.04 332.095 1710.97 C 319.559 1717.72 308.808 1720.76 294.376 1720.17 C 281.712 1719.67 269.382 1715.97 258.542 1709.4 C 247.38 1702.65 233.65 1690.4 223.488 1681.88 C 206.147 1667.33 189.038 1652.38 171.603 1637.92 L 114.594 1590.64 C 89.9501 1570.43 62.821 1554.32 64.6145 1518.11 C 66.4563 1480.94 101.929 1460.53 128.071 1438.79 L 232.361 1352.54 L 465.674 1159.4 L 580.566 1063.93 C 602.269 1046.01 628.229 1026.22 648.885 1007.75 C 636.395 996.485 619.012 983.133 605.747 972.237 L 511.399 895.064 L 221.758 656.284 L 129.672 581.002 C 115.772 569.634 91.6549 551.002 79.9501 538.72 C 72.295 530.58 67.2226 520.355 65.373 509.334 C 57.6223 460.182 97.1413 443.214 128.916 415.429 C 134.408 410.627 140.427 406.195 146.07 401.525 L 213.291 346.395 C 236.987 326.793 256.996 304.911 288.5 300.296 z" fill="rgb(33,36,72)" transform="translate(0,0)"></path>
<path d="M 295.918 399.976 C 309.871 409.768 326.957 424.614 340.312 435.652 C 363.311 454.739 386.426 473.684 409.658 492.487 L 684.781 719.006 L 915.509 908.657 C 941.06 929.593 966.315 950.86 992.154 971.436 C 1007.01 983.268 1022.31 995.549 1036.11 1008.61 C 1027.15 1017.06 1014.64 1026.79 1005.01 1034.68 C 984.672 1051.36 964.242 1067.92 943.718 1084.37 L 781.166 1217.95 L 423.441 1513.14 C 382.5 1546.85 341.858 1582.25 300.53 1615.59 C 299.125 1616.6 297.853 1617.35 296.385 1618.26 C 290.314 1616.12 190.701 1532.01 177.177 1521.01 C 191.96 1507.36 214.985 1489.41 230.874 1476.42 L 319.575 1403.25 L 624.106 1150.83 L 721.443 1069.51 C 741.426 1053 776.154 1025.54 793.748 1007.78 C 762.531 980.24 729.714 954.039 697.565 927.536 L 535.961 794.532 C 416.627 694.663 296.572 595.659 175.806 497.528 C 184.456 489.829 194.278 482.04 203.45 474.922 C 234.771 450.619 264.8 424.481 295.918 399.976 z" fill="rgb(255,255,255)" transform="translate(0,0)"></path>
<metadata><recraft-signature>{"signed_by": "recraft", "signature_b64": "4vUD+HEjYT449170tdehyBPuJKXC18+/g/zuBfpRMtYiT9TgFguuUrdaUsnLSVpDBuH6/SQVvAaK/meS6PFfAA==", "signing_algo": "Ed25519", "generation_timestamp": 1765378998, "identifier": "b1e0b750-6117-4013-881b-2d12d0738513"}</recraft-signature></metadata></svg>