<svg xmlns="http://www.w3.org/2000/svg" height="1024" preserveAspectRatio="none" style="display: block;" version="1.1" viewBox="0 0 2048 2048" width="1024">
<path d="M 0 0 L 2048 0 L 2048 2048 L 0 2048 L 0 0 z" fill="rgb(254,254,254)" transform="translate(0,0)"></path>
<path d="M 980.237 110.542 C 1484.75 86.4826 1913.25 475.941 1937.35 980.448 C 1961.45 1484.96 1572.03 1913.49 1067.53 1937.64 C 562.959 1961.78 134.362 1572.31 110.256 1067.74 C 86.1508 563.169 475.666 134.605 980.237 110.542 z" fill="rgb(39,46,66)" transform="translate(0,0)"></path>
<path d="M 1007.63 129.369 C 1501.92 120.362 1909.87 513.87 1918.68 1008.17 C 1927.48 1502.46 1533.81 1910.25 1039.51 1918.85 C 545.495 1927.45 137.995 1534.05 129.195 1040.04 C 120.395 546.033 513.626 138.372 1007.63 129.369 z" fill="rgb(254,254,254)" transform="translate(0,0)"></path>
<path d="M 1461.12 328.5 L 1536.75 328.071 C 1522.88 342.99 1505.35 359.527 1490.68 373.962 C 1462.57 401.264 1434.69 428.804 1407.05 456.579 L 1042.35 818.018 L 1424.9 817.554 L 1538.83 817.302 C 1561.15 817.158 1584.27 816.709 1606.55 817.242 C 1614.7 818.27 1622.6 818.049 1628.95 823.785 C 1639.54 833.346 1646.99 844.695 1655.55 856.002 C 1667.78 872.163 1680.31 888.111 1692.75 904.133 L 1739.95 965.2 C 1750.33 978.371 1761.3 991.373 1770.92 1005.08 C 1787.6 1028.84 1768.13 1045.07 1754.98 1062.6 L 1713.37 1118.49 L 1663.74 1184.78 C 1622.16 1240.48 1635.33 1230.34 1566.39 1230.19 L 1451.35 1230.16 C 1314.41 1230.24 1175.96 1228.98 1039.15 1230.69 C 1056.06 1247.71 1073.88 1263.77 1091.1 1280.46 L 1181.92 1369.93 L 1521.18 1704.82 C 1527.3 1710.88 1531.91 1715.6 1537.48 1722.13 L 955.813 1720.95 C 934.687 1701.63 912.494 1678.73 891.998 1658.54 L 758.107 1525.82 L 435.15 1207.75 L 313.967 1089.51 C 305.66 1081.39 274.479 1052.36 269.977 1045.28 C 264.25 1036.27 262.363 1025.35 264.734 1014.94 C 266.617 1006.54 270.374 1001.8 276.255 995.93 C 340.033 932.25 404.872 869.593 469.372 806.696 L 753.395 527.894 L 893.538 390.167 C 906.522 377.409 945.82 336.752 958.127 328.95 L 1461.12 328.5 z" fill="rgb(39,46,66)" transform="translate(0,0)"></path>
<path d="M 980.902 396.036 L 1371.91 395.963 C 1276.39 492.927 1177.12 587.78 1081.21 684.326 L 960.356 805.706 C 936.874 829.514 903.975 864.673 879.659 885.886 C 918.427 885.153 959.541 885.929 998.546 885.945 L 1292.88 886.323 L 1459.29 884.833 C 1502.81 884.222 1550.19 883.081 1593.55 884.764 C 1597.2 888.762 1600.09 892.838 1603.39 897.103 C 1628.89 930.062 1654.55 962.884 1679.94 995.928 C 1687.38 1005.61 1695.19 1014.86 1701.97 1025.03 L 1627.21 1123.43 C 1617.37 1136.22 1605.22 1153.75 1594.82 1165.49 C 1573.87 1166.38 1547.54 1165.58 1526.16 1165.64 L 1378.01 1165.83 L 879.972 1164.48 C 897.868 1180.42 918.423 1201.79 935.622 1218.95 L 1030.59 1314.32 L 1372.99 1652.67 L 980.954 1653.18 C 962.105 1632.75 935.573 1608.3 915.327 1588.37 L 810.667 1484.15 L 344.261 1024.48 C 369.837 1000.45 395.126 974.057 420.211 949.355 L 569.443 802.795 L 980.902 396.036 z" fill="rgb(254,254,254)" transform="translate(0,0)"></path>
<path d="M 1239.66 423.511 L 1301.64 422.989 C 1287.34 438.377 1270.17 454.044 1255.14 469.009 L 1175.68 548.904 L 933.737 790.8 L 850.259 873.866 C 837.668 886.622 823.18 900.596 811.58 914.044 L 1575.61 913.824 C 1587.72 926.248 1601.96 946.423 1612.87 960.686 C 1629.38 981.934 1645.79 1003.27 1662.07 1024.69 C 1655.13 1035.2 1644.42 1048.61 1636.66 1059.03 C 1617.7 1084.54 1598.45 1109.83 1578.91 1134.89 C 1322.92 1137.17 1064.62 1130.12 808.582 1134.38 C 827.002 1154.72 849.053 1175.01 868.712 1194.31 L 952.076 1276.66 C 988.354 1312.01 1023.16 1349.68 1059.8 1384.41 L 1212.47 1534.81 C 1243.58 1565.59 1272.93 1596.04 1305.78 1625.31 C 1202.4 1624.99 1095.09 1626.71 992.174 1624.61 C 985.34 1615.25 952.884 1584.37 942.938 1574.41 L 817.97 1450.56 C 728.832 1361.32 639.061 1272.72 548.664 1184.75 L 460.831 1098.35 C 435.636 1073.31 411.425 1048.14 384.761 1024.66 C 420.009 988.348 458.128 952.63 494.325 917.158 L 681.234 733.244 L 883.897 533.709 C 920.504 496.801 957.453 460.234 994.74 424.012 L 1239.66 423.511 z" fill="rgb(39,46,66)" transform="translate(0,0)"></path>
<path d="M 1179.56 458.515 L 1216.32 458.114 C 1196.78 478.942 1176.08 498.781 1155.85 518.951 L 1049.87 624.444 C 941.809 731.665 831.197 840.971 724.864 949.771 C 749.989 949.126 776.857 949.7 802.201 949.635 L 991.093 949.71 L 1559.17 949.043 C 1577.89 974.61 1599.08 1000.28 1616.82 1026.34 C 1600.81 1049.91 1579.84 1077.16 1562.11 1099.55 C 1531.41 1101.08 1491.32 1099.56 1460.23 1099.32 L 1302.84 1099.28 C 1110.34 1099.84 915.045 1100.42 722.699 1098.05 C 727.565 1104.13 737.185 1113.12 742.945 1118.78 L 777.945 1153.37 C 816.602 1192.29 855.523 1230.95 894.706 1269.34 L 1215.63 1588.21 L 1007.15 1589 C 984.63 1565.67 958.481 1540.5 935.27 1517.59 L 823.739 1407.18 L 436.208 1024.38 C 472.705 991.04 512.741 948.873 548.679 913.859 L 868.22 599.058 L 953.908 513.647 C 971.051 496.558 992.318 474.85 1010.55 459.174 L 1179.56 458.515 z" fill="rgb(254,254,254)" transform="translate(0,0)"></path>
<metadata><recraft-signature>{"signed_by": "recraft", "signature_b64": "mFo3ujpvuc/Xx0UaewAyKOstWIWFHlWBj5YkUEwn1fI6bavbXvlTMsnBnY0GpOZ3otFgfVFk13/10ZrpPdCMDA==", "signing_algo": "Ed25519", "generation_timestamp": 1765378986, "identifier": "8e03ab5f-c9ba-4bde-89cd-aec3b009ece9"}</recraft-signature></metadata></svg>